<svg xmlns="http://www.w3.org/2000/svg" xmlns:v="https://svgstorm.com"
viewBox = "0 0 1024 1024"
width="1024"
height="1024">
<g fill="None" fill-opacity="0.0" stroke="#1F2D3A" stroke-opacity="1.00" stroke-width="0.3"><path d="
M 0.00 1024.00 
L 1024.00 1024.00
L 1024.00 0.00
L 0.00 0.00
L 0.00 1024.00
M 598.00 330.00 
C 598.00 357.85 575.29 379.43 562.25 402.25 C 549.21 425.06 532.62 447.26 523.00 472.00
C 529.63 462.23 537.16 452.88 543.75 442.75 C 550.34 432.62 557.26 423.55 564.75 413.75 C 572.25 403.96 578.48 394.07 585.77 383.77 C 593.06 373.47 599.11 365.25 605.92 353.92 C 612.74 342.60 630.85 354.74 641.00 358.00
C 607.70 391.82 567.66 421.11 539.00 459.00
C 571.26 432.38 604.68 406.23 639.00 383.00
C 651.04 391.64 665.46 399.21 675.00 410.00
C 629.16 421.81 581.20 434.51 543.00 464.00
C 563.31 456.20 584.32 446.59 605.07 440.07 C 625.83 433.56 652.77 424.32 670.23 440.77 C 687.69 457.22 696.57 471.20 705.00 492.00
C 674.69 477.60 641.94 469.96 608.00 468.00
C 605.23 468.00 602.04 467.20 600.00 467.00
C 582.42 467.00 567.65 468.86 550.98 471.98 C 534.30 475.09 534.07 491.15 525.00 501.00
C 523.38 496.61 520.73 490.64 515.00 491.00
C 512.95 490.76 510.04 490.66 508.00 491.00
C 500.57 493.35 496.66 504.88 493.08 493.92 C 489.49 482.97 489.28 479.00 480.31 474.70 C 471.33 470.39 464.48 469.28 454.93 468.07 C 445.38 466.87 432.64 466.41 423.00 467.00 C 413.36 467.59 403.22 468.71 394.00 470.00 C 384.78 471.28 376.12 473.57 367.32 475.32 C 358.52 477.07 350.68 479.75 342.32 482.32 C 333.96 484.89 327.11 488.97 319.00 492.00
C 328.99 471.01 336.72 457.18 354.70 440.70 C 372.68 424.22 398.88 434.15 420.07 440.93 C 441.27 447.70 463.36 456.39 484.00 465.00
C 444.82 435.70 396.88 421.11 350.00 410.00
C 356.62 398.73 367.47 398.47 376.70 388.70 C 385.93 378.92 396.17 390.06 405.25 396.75 C 414.32 403.45 424.21 409.82 433.08 416.92 C 441.95 424.02 450.98 431.03 459.75 438.25 C 468.51 445.48 477.25 452.73 486.00 460.00
C 458.34 421.00 416.97 392.58 384.00 358.00
C 394.60 354.47 404.71 349.19 416.00 348.00
C 442.39 390.43 473.33 431.10 502.00 472.00
C 490.84 445.19 475.21 423.02 459.75 398.25 C 444.28 373.48 421.42 347.29 426.00 315.00
C 440.20 315.84 457.26 319.01 470.07 323.93 C 482.89 328.84 497.41 331.53 505.00 342.00
C 506.59 347.24 506.00 354.05 506.00 360.00
C 506.00 373.33 506.00 386.67 506.00 400.00
C 506.00 408.64 505.51 417.37 506.00 426.00 C 506.49 434.63 504.70 443.40 506.00 452.00 C 507.30 460.60 502.69 469.88 506.98 478.02 C 511.26 486.17 520.60 477.50 518.00 469.00 C 515.40 460.50 518.92 451.69 518.00 443.00 C 517.08 434.31 518.00 424.77 518.00 416.00
C 518.00 400.10 517.54 383.09 519.00 368.00
C 519.00 356.18 515.45 337.88 528.23 334.23 C 541.01 330.58 546.89 324.61 559.22 322.22 C 571.56 319.84 583.15 314.15 596.00 315.00
C 596.17 315.01 598.12 313.09 599.00 314.00
C 598.35 319.16 600.31 325.66 598.00 330.00
M 229.00 442.00 
C 219.70 437.41 218.76 441.98 227.69 446.31 C 236.63 450.63 215.32 460.61 217.00 449.00
C 219.89 450.84 227.36 455.02 227.00 448.00
C 211.11 448.59 222.42 428.12 229.00 442.00
M 280.00 438.00 
C 278.23 440.03 274.52 438.53 272.00 439.00
C 269.82 445.52 275.40 444.53 279.00 446.00
C 276.07 447.79 269.98 445.78 272.00 452.00
C 274.52 452.56 278.30 450.81 280.00 453.00
C 277.57 455.13 273.18 453.47 270.00 454.00
C 270.00 448.67 270.00 443.33 270.00 438.00
C 271.48 435.89 278.39 436.70 280.00 438.00
M 297.00 442.00 
C 286.82 437.46 287.91 441.42 296.25 446.75 C 304.58 452.09 281.70 458.97 286.00 448.00
C 292.02 454.99 298.69 449.46 288.32 445.68 C 277.95 441.89 297.95 430.01 297.00 442.00
M 730.00 437.00 
C 729.35 442.17 731.31 448.66 729.00 453.00
C 727.94 449.80 727.10 448.36 728.00 444.00 C 728.90 439.64 724.76 441.26 724.00 439.00
C 726.34 439.20 727.38 436.07 730.00 437.00
M 749.00 453.00 
C 748.29 455.16 741.07 454.14 740.00 453.00
C 738.86 451.79 739.33 451.53 740.00 450.00
C 741.06 447.57 744.14 446.91 741.00 445.00
C 734.34 442.45 744.13 433.20 747.69 438.31 C 751.25 443.41 745.85 447.68 742.00 450.00
C 743.33 452.68 749.20 448.85 749.00 453.00
M 779.00 441.00 
C 777.35 445.06 776.69 451.35 773.00 453.00
C 773.59 448.48 774.78 444.05 777.00 440.00
C 774.38 439.58 770.17 441.30 769.00 438.00
C 769.80 435.45 773.32 437.41 777.00 437.00 C 780.68 436.59 779.96 438.63 779.00 441.00
M 803.00 452.00 
C 805.01 454.10 795.28 455.15 794.00 453.00
C 791.58 448.94 799.92 447.72 800.75 443.75 C 801.59 439.78 796.27 437.29 794.00 443.00
C 791.87 439.24 799.03 434.24 802.23 438.77 C 805.43 443.30 799.63 447.76 797.00 451.00
C 799.23 450.48 800.73 452.54 803.00 452.00
M 243.00 438.00 
C 243.23 443.44 249.54 449.04 247.00 454.00
C 245.07 446.07 236.92 450.34 234.00 454.00
C 236.19 448.76 235.96 438.11 243.00 438.00
M 256.00 452.00 
C 258.84 452.59 262.98 450.78 265.00 453.00
C 262.24 455.16 257.51 453.45 254.00 454.00
C 254.65 448.84 252.69 442.34 255.00 438.00
C 257.22 441.75 255.41 447.49 256.00 452.00
M 761.00 453.00 
C 758.54 448.86 761.29 442.53 759.00 438.00
C 764.49 438.36 761.93 449.49 761.00 453.00
M 291.00 485.00 
C 257.40 486.66 220.53 486.67 187.00 485.00
C 220.60 483.33 257.47 483.33 291.00 485.00
M 837.00 485.00 
C 803.73 486.67 767.20 486.67 734.00 485.00
C 767.27 483.33 803.80 483.33 837.00 485.00
M 563.00 586.00 
C 563.48 589.95 563.64 594.07 563.00 598.00
C 561.87 618.75 546.14 634.54 525.00 636.00 C 503.86 637.46 484.84 621.92 484.00 600.00
C 483.39 595.71 483.31 591.24 484.00 587.00
C 485.18 565.32 501.14 549.53 523.00 549.00 C 544.86 548.47 562.55 563.56 563.00 586.00
M 647.00 551.00 
C 653.44 548.21 651.00 559.15 651.00 565.00
C 651.00 568.03 652.08 573.95 650.00 576.00
C 648.47 578.65 646.50 567.06 644.08 563.92 C 641.65 560.79 639.36 554.97 632.97 554.03 C 626.59 553.08 624.32 550.08 614.99 552.99 C 605.66 555.90 597.76 567.11 596.22 576.22 C 594.68 585.33 594.87 588.48 595.00 596.00 C 595.13 603.52 596.18 607.23 597.98 613.02 C 599.78 618.82 602.75 621.63 606.25 625.75 C 609.74 629.88 616.08 632.38 621.00 632.00 C 625.92 631.62 635.30 633.41 637.75 627.75 C 640.19 622.08 637.04 613.32 638.00 607.00 C 638.96 600.68 628.77 600.00 625.00 599.00
C 635.06 595.04 649.83 596.99 661.00 598.00
C 654.85 600.08 649.76 602.98 651.00 611.00 C 652.24 619.02 650.07 626.07 651.00 634.00
C 648.67 634.00 646.33 634.00 644.00 634.00
C 642.48 634.21 640.15 634.94 638.00 635.00
C 624.40 635.38 609.10 637.25 597.75 629.25 C 586.40 621.24 580.53 611.93 580.00 598.00
C 579.57 594.96 579.64 591.95 580.00 589.00
C 580.21 578.42 583.46 570.50 590.25 562.25 C 597.03 554.00 605.06 551.80 615.07 549.07 C 625.09 546.35 639.20 554.38 647.00 551.00
M 224.00 554.00 
C 219.33 554.00 214.67 554.00 210.00 554.00
C 210.00 566.00 210.00 578.00 210.00 590.00
C 213.81 592.67 222.89 588.62 227.01 589.01 C 231.12 589.39 232.85 578.12 235.00 579.00
C 237.36 579.97 235.72 586.44 236.00 589.00 C 236.28 591.56 236.17 597.18 236.00 600.00
C 235.85 602.46 237.11 606.98 233.00 606.00
C 233.80 598.63 227.52 592.52 220.00 594.00
C 217.55 593.91 211.41 592.98 210.00 595.00
C 207.95 603.25 209.05 618.64 210.00 627.00 C 210.95 635.36 229.39 631.48 236.02 631.02 C 242.66 630.57 247.50 616.94 252.00 615.00
C 252.40 621.93 249.82 628.10 250.00 635.00
C 228.00 635.00 206.00 635.00 184.00 635.00
C 188.90 631.37 196.87 630.34 196.00 621.00 C 195.12 611.66 196.16 603.00 196.00 594.00 C 195.84 585.00 195.48 576.74 196.00 568.00 C 196.52 559.26 194.42 552.13 185.00 552.00
C 191.44 547.64 203.01 550.98 212.00 550.00 C 220.99 549.02 231.97 551.14 241.00 550.00 C 250.03 548.86 250.11 566.04 246.00 569.00
C 245.55 557.44 234.69 552.33 224.00 554.00
M 335.00 571.00 
C 335.47 573.63 335.46 575.43 335.00 578.00
C 333.84 596.30 311.96 603.94 296.00 602.00
C 299.23 596.60 311.18 599.01 316.25 592.25 C 321.32 585.48 322.48 576.86 321.00 569.00 C 319.52 561.13 313.69 555.26 306.00 554.00
C 303.42 553.68 300.60 554.00 298.00 554.00
C 296.74 554.00 295.24 553.78 294.00 554.00
C 289.04 555.60 292.70 570.29 292.00 576.00 C 291.30 581.71 291.83 593.12 292.00 600.00 C 292.17 606.88 290.94 617.89 292.00 625.00
C 293.79 631.41 298.07 631.61 304.00 633.00
C 294.58 637.62 278.84 633.70 267.00 635.00
C 267.97 626.47 278.12 637.43 277.93 624.93 C 277.73 612.42 278.41 595.36 278.00 583.00 C 277.59 570.64 282.16 553.56 267.00 552.00
C 273.43 547.78 286.15 550.79 295.00 550.00 C 303.85 549.21 313.83 550.59 321.69 553.31 C 329.56 556.02 334.72 562.79 335.00 571.00
M 391.00 551.00 
C 385.50 554.83 376.70 553.10 378.07 564.07 C 379.45 575.04 375.76 578.32 378.00 591.00 C 380.24 603.68 370.47 633.21 391.00 632.00
C 389.02 637.77 379.20 634.24 373.00 635.00 C 366.80 635.76 358.40 634.43 352.00 635.00
C 357.08 631.40 365.50 630.40 364.93 620.93 C 364.36 611.45 365.23 603.08 365.00 594.00 C 364.77 584.92 364.94 575.76 365.00 567.00 C 365.06 558.24 361.67 552.50 353.00 552.00
C 356.54 548.25 364.90 550.24 371.00 550.00 C 377.10 549.76 385.20 549.39 391.00 551.00
M 436.00 631.00 
C 441.07 631.98 448.87 631.64 454.00 631.00
C 465.00 628.28 466.93 618.11 473.00 612.00
C 473.05 619.92 470.20 627.11 470.00 635.00
C 448.33 635.00 426.67 635.00 405.00 635.00
C 405.63 625.68 416.50 638.51 416.78 625.78 C 417.05 613.04 417.15 595.62 417.00 583.00 C 416.85 570.38 420.85 553.14 405.00 552.00
C 414.75 547.37 430.83 551.30 443.00 550.00
C 439.97 554.24 430.01 553.52 431.00 562.00 C 431.99 570.48 430.32 578.96 431.00 587.00 C 431.68 595.04 430.20 603.54 431.00 611.00 C 431.80 618.46 427.65 628.97 436.00 631.00
M 698.00 562.00 
C 696.59 577.51 697.41 594.43 698.00 610.00
C 698.43 621.23 702.92 628.54 714.00 631.00
C 716.48 631.25 719.52 631.26 722.00 631.00
C 727.76 629.72 732.24 628.45 736.25 623.25 C 740.25 618.05 741.05 612.85 741.98 605.98 C 742.91 599.10 741.01 591.55 742.00 584.00 C 742.99 576.45 740.72 569.82 741.07 561.93 C 741.43 554.04 734.15 553.72 730.00 550.00
C 739.00 550.00 748.00 550.00 757.00 550.00
C 754.95 554.65 744.86 552.91 746.00 562.00 C 747.15 571.09 745.24 575.52 746.00 585.00 C 746.76 594.48 745.26 596.67 745.67 607.67 C 746.08 618.67 738.61 632.49 726.92 634.92 C 715.24 637.36 716.16 637.19 704.33 635.67 C 692.50 634.15 683.37 621.65 684.00 610.00 C 684.63 598.35 684.98 598.92 684.00 587.00 C 683.02 575.08 689.55 552.99 672.00 552.00
C 675.26 548.51 684.28 549.89 690.00 550.00 C 695.72 550.11 705.65 548.31 709.00 552.00
C 704.28 552.86 696.68 554.96 698.00 562.00
M 813.00 554.00 
C 807.33 554.00 801.67 554.00 796.00 554.00
C 793.18 558.03 797.47 567.03 796.00 572.00 C 794.53 576.97 797.10 584.77 796.00 590.00
C 805.12 590.02 819.52 591.93 821.00 580.00
C 824.30 585.30 824.33 600.70 821.00 606.00
C 820.58 599.23 815.69 592.60 808.00 594.00
C 804.01 593.78 799.99 594.16 796.00 594.00
C 793.42 597.68 796.80 608.36 796.00 613.00 C 795.20 617.64 794.52 626.06 798.25 629.75 C 801.98 633.43 810.84 631.71 816.00 632.00 C 821.16 632.29 825.24 629.31 829.25 626.25 C 833.25 623.19 833.27 615.72 838.00 615.00
C 836.90 622.64 839.09 635.77 829.00 635.00 C 818.91 634.23 809.89 635.40 800.00 635.00 C 790.11 634.60 780.83 635.30 771.00 635.00
C 774.04 627.11 780.70 637.03 782.00 625.00 C 783.30 612.97 783.39 596.30 783.00 584.00 C 782.61 571.70 787.37 553.50 772.00 552.00
C 778.70 548.04 791.90 550.44 801.00 550.00 C 810.10 549.56 823.35 550.10 832.00 550.00 C 840.65 549.90 835.47 575.26 833.03 565.97 C 830.59 556.68 822.98 552.53 813.00 554.00
M 341.00 690.00 
C 345.77 694.76 326.86 694.68 324.00 694.00
C 321.96 696.91 325.53 703.74 324.00 707.00
C 330.67 707.00 337.33 707.00 344.00 707.00
C 342.12 715.53 326.51 708.91 319.00 711.00
C 319.00 698.00 319.00 685.00 319.00 672.00
C 326.26 674.21 342.07 666.93 343.00 677.00
C 336.67 677.00 330.33 677.00 324.00 677.00
C 324.00 681.00 324.00 685.00 324.00 689.00
C 329.50 689.65 336.33 687.68 341.00 690.00
M 371.00 673.00 
C 374.76 676.09 373.97 684.10 376.93 688.07 C 379.88 692.05 380.09 698.81 383.00 703.00
C 386.80 698.18 387.85 691.16 390.77 685.77 C 393.70 680.38 393.09 669.84 402.00 672.00
C 402.00 685.00 402.00 698.00 402.00 711.00
C 394.27 712.80 397.71 703.80 397.00 699.00 C 396.29 694.20 398.35 687.07 396.00 683.00
C 394.63 690.79 390.73 693.96 389.02 702.03 C 387.32 710.09 380.75 713.30 378.68 704.32 C 376.61 695.34 372.52 693.60 371.00 685.00
C 371.39 688.45 368.46 696.97 370.00 701.00 C 371.54 705.03 369.29 716.45 364.00 711.00
C 362.82 698.11 364.88 684.92 364.00 672.00
C 366.19 672.52 369.62 670.86 371.00 673.00
M 431.00 696.00 
C 431.00 701.00 431.00 706.00 431.00 711.00
C 422.47 711.75 426.79 700.39 426.00 694.00 C 425.21 687.61 426.59 678.63 426.00 672.00
C 435.73 671.91 449.77 669.57 452.32 681.68 C 454.88 693.79 440.90 697.83 431.00 696.00
M 472.00 696.00 
C 471.39 693.03 471.48 690.89 472.00 688.00
C 473.65 663.81 511.27 668.39 509.99 692.01 C 508.72 715.62 476.82 719.29 472.00 696.00
M 549.00 673.00 
C 559.58 675.62 561.84 689.56 551.00 694.00
C 553.56 699.74 557.16 705.03 559.00 711.00
C 547.32 713.04 551.12 690.09 537.00 695.00
C 537.00 700.33 537.00 705.67 537.00 711.00
C 535.33 711.00 533.67 711.00 532.00 711.00
C 529.03 709.12 530.97 695.93 531.00 692.00 C 531.03 688.07 529.16 674.73 532.00 672.00
C 537.55 671.50 544.22 671.82 549.00 673.00
M 582.00 711.00 
C 579.40 708.40 580.44 697.13 581.00 693.00 C 581.56 688.87 578.65 676.45 581.00 673.00
C 585.14 666.91 588.07 678.39 587.00 682.00 C 585.93 685.61 587.00 696.46 587.00 700.00 C 587.00 703.54 587.46 716.46 582.00 711.00
M 615.00 673.00 
C 619.10 677.10 615.27 693.08 616.00 699.00
C 618.47 708.98 631.70 710.43 635.00 700.00
C 635.68 696.20 636.02 686.52 635.00 683.00 C 633.98 679.48 636.59 666.52 641.00 673.00
C 644.15 677.64 639.31 689.55 641.00 695.00 C 642.69 700.45 638.72 707.40 633.92 709.92 C 629.12 712.43 621.22 713.47 616.26 709.74 C 611.30 706.02 609.55 700.47 610.00 694.00 C 610.45 687.53 609.67 678.69 610.00 672.00
C 611.57 672.39 614.22 671.06 615.00 673.00
M 697.00 673.00 
C 704.35 666.88 705.67 681.87 704.00 687.00 C 702.33 692.13 706.99 706.01 703.00 710.00
C 701.71 711.29 699.92 711.02 698.00 711.00
C 698.00 702.67 698.00 694.33 698.00 686.00
C 697.95 685.65 697.11 684.91 697.00 685.00
C 690.04 691.10 693.87 710.95 682.00 711.00
C 680.27 701.51 674.59 693.25 672.00 684.00
C 672.54 689.29 671.73 699.94 671.00 706.00
C 670.80 707.64 671.15 709.35 671.00 711.00
C 669.33 711.00 667.67 711.00 666.00 711.00
C 663.19 709.22 664.87 695.60 665.00 692.00 C 665.13 688.40 663.05 674.01 666.00 672.00
C 673.17 667.13 675.03 681.76 677.32 685.68 C 679.61 689.60 681.80 700.70 686.00 703.00
C 688.37 692.62 693.64 683.10 697.00 673.00
M 288.00 696.00 
C 288.30 696.22 289.10 696.81 289.00 697.00
C 286.84 700.87 275.07 697.07 270.00 698.00 C 264.93 698.93 254.95 697.76 249.00 698.00 C 243.05 698.24 234.12 698.29 228.00 698.00 C 221.88 697.71 212.70 699.01 207.00 698.00 C 201.30 696.99 190.73 700.88 187.00 697.00
C 187.23 692.99 200.10 695.40 205.00 695.00 C 209.90 694.60 220.06 695.04 226.00 695.00 C 231.94 694.96 240.74 694.69 247.00 695.00 C 253.26 695.31 261.90 694.15 268.00 695.00 C 274.10 695.85 283.34 692.57 288.00 696.00
M 836.00 697.00 
C 832.17 700.99 821.73 696.81 816.00 698.00 C 810.27 699.19 801.17 697.36 795.00 698.00 C 788.83 698.64 778.93 697.43 773.00 698.00 C 767.07 698.57 756.75 697.11 752.00 698.00 C 747.25 698.89 732.39 697.54 735.00 695.00
C 741.55 694.40 748.44 695.21 755.00 695.00 C 761.56 694.79 769.61 695.01 776.00 695.00 C 782.39 694.99 790.12 694.78 796.00 695.00 C 801.88 695.22 812.18 694.45 817.00 695.00 C 821.82 695.55 835.76 692.84 836.00 697.00 Z"/>
</g>
<g fill="None" fill-opacity="0.0" stroke="#89919C" stroke-opacity="1.00" stroke-width="0.3"><path d="
M 596.00 315.00 
C 599.63 316.65 598.00 325.82 598.00 330.00
C 600.31 325.66 598.35 319.16 599.00 314.00
C 598.12 313.09 596.17 315.01 596.00 315.00 Z"/>
</g>
<g fill="None" fill-opacity="0.0" stroke="#F5F7F8" stroke-opacity="1.00" stroke-width="0.3"><path d="
M 508.00 491.00 
C 510.81 490.11 512.28 490.33 515.00 491.00
C 520.73 490.64 523.38 496.61 525.00 501.00
C 534.07 491.15 534.30 475.09 550.98 471.98 C 567.65 468.86 582.42 467.00 600.00 467.00
C 602.77 467.00 605.96 467.80 608.00 468.00
C 641.94 469.96 674.69 477.60 705.00 492.00
C 696.57 471.20 687.69 457.22 670.23 440.77 C 652.77 424.32 625.83 433.56 605.07 440.07 C 584.32 446.59 563.31 456.20 543.00 464.00
C 581.20 434.51 629.16 421.81 675.00 410.00
C 665.46 399.21 651.04 391.64 639.00 383.00
C 604.68 406.23 571.26 432.38 539.00 459.00
C 567.66 421.11 607.70 391.82 641.00 358.00
C 630.85 354.74 612.74 342.60 605.92 353.92 C 599.11 365.25 593.06 373.47 585.77 383.77 C 578.48 394.07 572.25 403.96 564.75 413.75 C 557.26 423.55 550.34 432.62 543.75 442.75 C 537.16 452.88 529.63 462.23 523.00 472.00
C 532.62 447.26 549.21 425.06 562.25 402.25 C 575.29 379.43 598.00 357.85 598.00 330.00
C 598.00 325.82 599.63 316.65 596.00 315.00
C 583.15 314.15 571.56 319.84 559.22 322.22 C 546.89 324.61 541.01 330.58 528.23 334.23 C 515.45 337.88 519.00 356.18 519.00 368.00
C 519.00 383.90 519.46 400.91 518.00 416.00
C 518.00 424.77 517.08 434.31 518.00 443.00 C 518.92 451.69 515.40 460.50 518.00 469.00 C 520.60 477.50 511.26 486.17 506.98 478.02 C 502.69 469.88 507.30 460.60 506.00 452.00 C 504.70 443.40 506.49 434.63 506.00 426.00 C 505.51 417.37 506.00 408.64 506.00 400.00
C 504.78 387.44 505.00 373.28 505.00 360.00
C 505.00 354.28 505.95 347.63 505.00 342.00
C 497.41 331.53 482.89 328.84 470.07 323.93 C 457.26 319.01 440.20 315.84 426.00 315.00
C 421.42 347.29 444.28 373.48 459.75 398.25 C 475.21 423.02 490.84 445.19 502.00 472.00
C 473.33 431.10 442.39 390.43 416.00 348.00
C 404.71 349.19 394.60 354.47 384.00 358.00
C 416.97 392.58 458.34 421.00 486.00 460.00
C 477.25 452.73 468.51 445.48 459.75 438.25 C 450.98 431.03 441.95 424.02 433.08 416.92 C 424.21 409.82 414.32 403.45 405.25 396.75 C 396.17 390.06 385.93 378.92 376.70 388.70 C 367.47 398.47 356.62 398.73 350.00 410.00
C 396.88 421.11 444.82 435.70 484.00 465.00
C 463.36 456.39 441.27 447.70 420.07 440.93 C 398.88 434.15 372.68 424.22 354.70 440.70 C 336.72 457.18 328.99 471.01 319.00 492.00
C 327.11 488.97 333.96 484.89 342.32 482.32 C 350.68 479.75 358.52 477.07 367.32 475.32 C 376.12 473.57 384.78 471.28 394.00 470.00 C 403.22 468.71 413.36 467.59 423.00 467.00 C 432.64 466.41 445.38 466.87 454.93 468.07 C 464.48 469.28 471.33 470.39 480.31 474.70 C 489.28 479.00 489.49 482.97 493.08 493.92 C 496.66 504.88 500.57 493.35 508.00 491.00 Z"/>
</g>
<g fill="None" fill-opacity="0.0" stroke="#6C767F" stroke-opacity="1.00" stroke-width="0.3"><path d="
M 505.00 360.00 
C 505.00 359.96 506.00 360.00 506.00 360.00
C 506.00 354.05 506.59 347.24 505.00 342.00
C 505.95 347.63 505.00 354.28 505.00 360.00 Z"/>
</g>
<g fill="None" fill-opacity="0.0" stroke="#99A0AB" stroke-opacity="1.00" stroke-width="0.3"><path d="
M 506.00 400.00 
C 506.00 386.67 506.00 373.33 506.00 360.00
C 506.00 360.00 505.00 359.96 505.00 360.00
C 505.00 373.28 504.78 387.44 506.00 400.00 Z"/>
</g>
<g fill="None" fill-opacity="0.0" stroke="#808691" stroke-opacity="1.00" stroke-width="0.3"><path d="
M 518.00 416.00 
C 519.46 400.91 519.00 383.90 519.00 368.00
C 517.54 383.09 518.00 400.10 518.00 416.00 Z"/>
</g>
<g fill="None" fill-opacity="0.0" stroke="#A6B2BE" stroke-opacity="1.00" stroke-width="0.3"><path d="
M 229.00 442.00 
C 222.42 428.12 211.11 448.59 227.00 448.00
C 227.36 455.02 219.89 450.84 217.00 449.00
C 215.32 460.61 236.63 450.63 227.69 446.31 C 218.76 441.98 219.70 437.41 229.00 442.00 Z"/>
</g>
<g fill="None" fill-opacity="0.0" stroke="#626E7A" stroke-opacity="1.00" stroke-width="0.3"><path d="
M 270.00 438.00 
C 273.33 438.00 276.67 438.00 280.00 438.00
C 278.39 436.70 271.48 435.89 270.00 438.00 Z"/>
</g>
<g fill="None" fill-opacity="0.0" stroke="#ABB8C3" stroke-opacity="1.00" stroke-width="0.3"><path d="
M 297.00 442.00 
C 297.95 430.01 277.95 441.89 288.32 445.68 C 298.69 449.46 292.02 454.99 286.00 448.00
C 281.70 458.97 304.58 452.09 296.25 446.75 C 287.91 441.42 286.82 437.46 297.00 442.00 Z"/>
</g>
<g fill="None" fill-opacity="0.0" stroke="#ACB8C3" stroke-opacity="1.00" stroke-width="0.3"><path d="
M 730.00 437.00 
C 727.38 436.07 726.34 439.20 724.00 439.00
C 724.76 441.26 728.90 439.64 728.00 444.00 C 727.10 448.36 727.94 449.80 729.00 453.00
C 731.31 448.66 729.35 442.17 730.00 437.00 Z"/>
</g>
<g fill="None" fill-opacity="0.0" stroke="#A8B4C0" stroke-opacity="1.00" stroke-width="0.3"><path d="
M 741.00 445.00 
C 741.44 445.17 742.00 445.00 742.00 445.00
C 738.08 438.42 748.83 436.73 746.00 444.00
C 744.95 446.71 741.26 447.85 740.00 450.00
C 739.33 451.53 738.86 451.79 740.00 453.00
C 742.10 454.37 746.67 451.97 749.00 453.00
C 749.20 448.85 743.33 452.68 742.00 450.00
C 745.85 447.68 751.25 443.41 747.69 438.31 C 744.13 433.20 734.34 442.45 741.00 445.00 Z"/>
</g>
<g fill="None" fill-opacity="0.0" stroke="#5A6771" stroke-opacity="1.00" stroke-width="0.3"><path d="
M 769.00 438.00 
C 772.67 438.00 776.33 438.00 780.00 438.00
C 780.53 439.28 779.03 439.86 779.00 441.00
C 779.96 438.63 780.68 436.59 777.00 437.00 C 773.32 437.41 769.80 435.45 769.00 438.00 Z"/>
</g>
<g fill="None" fill-opacity="0.0" stroke="#A2AFBA" stroke-opacity="1.00" stroke-width="0.3"><path d="
M 794.00 453.00 
C 796.84 452.41 800.98 454.22 803.00 452.00
C 800.73 452.54 799.23 450.48 797.00 451.00
C 799.63 447.76 805.43 443.30 802.23 438.77 C 799.03 434.24 791.87 439.24 794.00 443.00
C 796.27 437.29 801.59 439.78 800.75 443.75 C 799.92 447.72 791.58 448.94 794.00 453.00 Z"/>
</g>
<g fill="None" fill-opacity="0.0" stroke="#A3AFBB" stroke-opacity="1.00" stroke-width="0.3"><path d="
M 243.00 438.00 
C 235.96 438.11 236.19 448.76 234.00 454.00
C 236.92 450.34 245.07 446.07 247.00 454.00
C 249.54 449.04 243.23 443.44 243.00 438.00
M 242.00 441.00 
C 243.74 445.86 243.81 447.67 238.00 448.00
C 239.10 445.73 239.09 441.33 242.00 441.00 Z"/>
</g>
<g fill="None" fill-opacity="0.0" stroke="#B6C1CD" stroke-opacity="1.00" stroke-width="0.3"><path d="
M 256.00 452.00 
C 255.41 447.49 257.22 441.75 255.00 438.00
C 252.69 442.34 254.65 448.84 254.00 454.00
C 257.51 453.45 262.24 455.16 265.00 453.00
C 262.98 450.78 258.84 452.59 256.00 452.00 Z"/>
</g>
<g fill="None" fill-opacity="0.0" stroke="#B7C3CE" stroke-opacity="1.00" stroke-width="0.3"><path d="
M 280.00 438.00 
C 276.67 438.00 273.33 438.00 270.00 438.00
C 270.00 443.33 270.00 448.67 270.00 454.00
C 273.18 453.47 277.57 455.13 280.00 453.00
C 278.30 450.81 274.52 452.56 272.00 452.00
C 269.98 445.78 276.07 447.79 279.00 446.00
C 275.40 444.53 269.82 445.52 272.00 439.00
C 274.52 438.53 278.23 440.03 280.00 438.00 Z"/>
</g>
<g fill="None" fill-opacity="0.0" stroke="#9FACB8" stroke-opacity="1.00" stroke-width="0.3"><path d="
M 761.00 453.00 
C 761.93 449.49 764.49 438.36 759.00 438.00
C 761.29 442.53 758.54 448.86 761.00 453.00 Z"/>
</g>
<g fill="None" fill-opacity="0.0" stroke="#A9B5C0" stroke-opacity="1.00" stroke-width="0.3"><path d="
M 779.00 441.00 
C 779.03 439.86 780.53 439.28 780.00 438.00
C 776.33 438.00 772.67 438.00 769.00 438.00
C 770.17 441.30 774.38 439.58 777.00 440.00
C 774.78 444.05 773.59 448.48 773.00 453.00
C 776.69 451.35 777.35 445.06 779.00 441.00 Z"/>
</g>
<g fill="None" fill-opacity="0.0" stroke="#28333E" stroke-opacity="1.00" stroke-width="0.3"><path d="
M 742.00 445.00 
C 743.24 445.09 745.07 444.92 746.00 444.00
C 748.83 436.73 738.08 438.42 742.00 445.00 Z"/>
</g>
<g fill="None" fill-opacity="0.0" stroke="#2D3B45" stroke-opacity="1.00" stroke-width="0.3"><path d="
M 242.00 441.00 
C 239.09 441.33 239.10 445.73 238.00 448.00
C 243.81 447.67 243.74 445.86 242.00 441.00 Z"/>
</g>
<g fill="None" fill-opacity="0.0" stroke="#6F7A85" stroke-opacity="1.00" stroke-width="0.3"><path d="
M 742.00 445.00 
C 742.00 445.00 741.44 445.17 741.00 445.00
C 744.14 446.91 741.06 447.57 740.00 450.00
C 741.26 447.85 744.95 446.71 746.00 444.00
C 745.07 444.92 743.24 445.09 742.00 445.00 Z"/>
</g>
<g fill="None" fill-opacity="0.0" stroke="#6B7883" stroke-opacity="1.00" stroke-width="0.3"><path d="
M 794.00 453.00 
C 795.28 455.15 805.01 454.10 803.00 452.00
C 800.98 454.22 796.84 452.41 794.00 453.00 Z"/>
</g>
<g fill="None" fill-opacity="0.0" stroke="#616F79" stroke-opacity="1.00" stroke-width="0.3"><path d="
M 749.00 453.00 
C 746.67 451.97 742.10 454.37 740.00 453.00
C 741.07 454.14 748.29 455.16 749.00 453.00 Z"/>
</g>
<g fill="None" fill-opacity="0.0" stroke="#8D969F" stroke-opacity="1.00" stroke-width="0.3"><path d="
M 608.00 468.00 
C 605.96 467.80 602.77 467.00 600.00 467.00
C 602.04 467.20 605.23 468.00 608.00 468.00 Z"/>
</g>
<g fill="None" fill-opacity="0.0" stroke="#D0D9E1" stroke-opacity="1.00" stroke-width="0.3"><path d="
M 291.00 485.00 
C 257.47 483.33 220.60 483.33 187.00 485.00
C 220.53 486.67 257.40 486.66 291.00 485.00 Z"/>
</g>
<g fill="None" fill-opacity="0.0" stroke="#CDD6DE" stroke-opacity="1.00" stroke-width="0.3"><path d="
M 837.00 485.00 
C 803.80 483.33 767.27 483.33 734.00 485.00
C 767.20 486.67 803.73 486.67 837.00 485.00 Z"/>
</g>
<g fill="None" fill-opacity="0.0" stroke="#888F95" stroke-opacity="1.00" stroke-width="0.3"><path d="
M 508.00 491.00 
C 510.04 490.66 512.95 490.76 515.00 491.00
C 512.28 490.33 510.81 490.11 508.00 491.00 Z"/>
</g>
<g fill="None" fill-opacity="0.0" stroke="#EFF2F3" stroke-opacity="1.00" stroke-width="0.3"><path d="
M 484.00 587.00 
C 483.77 591.27 483.84 595.73 484.00 600.00
C 484.84 621.92 503.86 637.46 525.00 636.00 C 546.14 634.54 561.87 618.75 563.00 598.00
C 563.21 594.04 563.08 589.96 563.00 586.00
C 562.55 563.56 544.86 548.47 523.00 549.00 C 501.14 549.53 485.18 565.32 484.00 587.00
M 499.00 597.00 
C 498.73 594.18 498.73 590.76 499.00 588.00
C 499.00 571.99 504.90 550.61 525.00 552.00 C 545.10 553.39 548.22 575.86 548.00 592.00 C 547.78 608.14 545.81 630.72 525.98 632.98 C 506.14 635.23 499.00 612.42 499.00 597.00 Z"/>
</g>
<g fill="None" fill-opacity="0.0" stroke="#ECEFF1" stroke-opacity="1.00" stroke-width="0.3"><path d="
M 580.00 589.00 
C 579.94 591.98 579.89 595.02 580.00 598.00
C 580.53 611.93 586.40 621.24 597.75 629.25 C 609.10 637.25 624.40 635.38 638.00 635.00
C 639.44 634.83 641.94 634.10 644.00 634.00
C 646.33 634.00 648.67 634.00 651.00 634.00
C 650.07 626.07 652.24 619.02 651.00 611.00 C 649.76 602.98 654.85 600.08 661.00 598.00
C 649.83 596.99 635.06 595.04 625.00 599.00
C 628.77 600.00 638.96 600.68 638.00 607.00 C 637.04 613.32 640.19 622.08 637.75 627.75 C 635.30 633.41 625.92 631.62 621.00 632.00 C 616.08 632.38 609.74 629.88 606.25 625.75 C 602.75 621.63 599.78 618.82 597.98 613.02 C 596.18 607.23 595.13 603.52 595.00 596.00 C 594.87 588.48 594.68 585.33 596.22 576.22 C 597.76 567.11 605.66 555.90 614.99 552.99 C 624.32 550.08 626.59 553.08 632.97 554.03 C 639.36 554.97 641.65 560.79 644.08 563.92 C 646.50 567.06 648.47 578.65 650.00 576.00
C 651.20 573.92 650.00 567.48 650.00 565.00
C 650.00 560.00 650.00 555.00 650.00 550.00
C 648.72 549.47 648.14 550.97 647.00 551.00
C 639.20 554.38 625.09 546.35 615.07 549.07 C 605.06 551.80 597.03 554.00 590.25 562.25 C 583.46 570.50 580.21 578.42 580.00 589.00 Z"/>
</g>
<g fill="None" fill-opacity="0.0" stroke="#6B747B" stroke-opacity="1.00" stroke-width="0.3"><path d="
M 647.00 551.00 
C 648.14 550.97 648.72 549.47 650.00 550.00
C 650.00 555.00 650.00 560.00 650.00 565.00
C 650.00 564.96 651.00 565.00 651.00 565.00
C 651.00 559.15 653.44 548.21 647.00 551.00 Z"/>
</g>
<g fill="None" fill-opacity="0.0" stroke="#E9EDEF" stroke-opacity="1.00" stroke-width="0.3"><path d="
M 210.00 595.00 
C 210.90 591.39 216.61 593.52 220.00 594.00
C 227.52 592.52 233.80 598.63 233.00 606.00
C 237.11 606.98 235.85 602.46 236.00 600.00
C 235.77 593.84 234.09 585.90 235.00 579.00
C 232.85 578.12 231.12 589.39 227.01 589.01 C 222.89 588.62 213.81 592.67 210.00 590.00
C 206.81 587.77 209.36 577.27 209.00 573.00 C 208.64 568.73 208.24 559.55 209.00 555.00 C 209.76 550.45 221.93 553.80 224.00 554.00
C 234.69 552.33 245.55 557.44 246.00 569.00
C 250.11 566.04 250.03 548.86 241.00 550.00 C 231.97 551.14 220.99 549.02 212.00 550.00 C 203.01 550.98 191.44 547.64 185.00 552.00
C 194.42 552.13 196.52 559.26 196.00 568.00 C 195.48 576.74 195.84 585.00 196.00 594.00 C 196.16 603.00 195.12 611.66 196.00 621.00 C 196.87 630.34 188.90 631.37 184.00 635.00
C 206.00 635.00 228.00 635.00 250.00 635.00
C 249.82 628.10 252.40 621.93 252.00 615.00
C 247.50 616.94 242.66 630.57 236.02 631.02 C 229.39 631.48 210.95 635.36 210.00 627.00 C 209.05 618.64 207.95 603.25 210.00 595.00 Z"/>
</g>
<g fill="None" fill-opacity="0.0" stroke="#F0F2F4" stroke-opacity="1.00" stroke-width="0.3"><path d="
M 292.00 625.00 
C 290.20 618.55 290.85 608.02 291.00 601.00 C 291.15 593.98 290.25 582.14 291.00 576.00 C 291.75 569.86 287.79 555.08 294.00 554.00
C 295.24 553.78 296.74 554.00 298.00 554.00
C 300.90 553.61 303.05 553.27 306.00 554.00
C 313.69 555.26 319.52 561.13 321.00 569.00 C 322.48 576.86 321.32 585.48 316.25 592.25 C 311.18 599.01 299.23 596.60 296.00 602.00
C 311.96 603.94 333.84 596.30 335.00 578.00
C 335.14 575.73 335.14 573.27 335.00 571.00
C 334.72 562.79 329.56 556.02 321.69 553.31 C 313.83 550.59 303.85 549.21 295.00 550.00 C 286.15 550.79 273.43 547.78 267.00 552.00
C 282.16 553.56 277.59 570.64 278.00 583.00 C 278.41 595.36 277.73 612.42 277.93 624.93 C 278.12 637.43 267.97 626.47 267.00 635.00
C 278.84 633.70 294.58 637.62 304.00 633.00
C 298.07 631.61 293.79 631.41 292.00 625.00 Z"/>
</g>
<g fill="None" fill-opacity="0.0" stroke="#F1F3F5" stroke-opacity="1.00" stroke-width="0.3"><path d="
M 391.00 551.00 
C 385.20 549.39 377.10 549.76 371.00 550.00 C 364.90 550.24 356.54 548.25 353.00 552.00
C 361.67 552.50 365.06 558.24 365.00 567.00 C 364.94 575.76 364.77 584.92 365.00 594.00 C 365.23 603.08 364.36 611.45 364.93 620.93 C 365.50 630.40 357.08 631.40 352.00 635.00
C 358.40 634.43 366.80 635.76 373.00 635.00 C 379.20 634.24 389.02 637.77 391.00 632.00
C 370.47 633.21 380.24 603.68 378.00 591.00 C 375.76 578.32 379.45 575.04 378.07 564.07 C 376.70 553.10 385.50 554.83 391.00 551.00 Z"/>
</g>
<g fill="None" fill-opacity="0.0" stroke="#EDF0F1" stroke-opacity="1.00" stroke-width="0.3"><path d="
M 454.00 631.00 
C 448.78 632.29 441.15 632.72 436.00 631.00
C 427.65 628.97 431.80 618.46 431.00 611.00 C 430.20 603.54 431.68 595.04 431.00 587.00 C 430.32 578.96 431.99 570.48 431.00 562.00 C 430.01 553.52 439.97 554.24 443.00 550.00
C 430.83 551.30 414.75 547.37 405.00 552.00
C 420.85 553.14 416.85 570.38 417.00 583.00 C 417.15 595.62 417.05 613.04 416.78 625.78 C 416.50 638.51 405.63 625.68 405.00 635.00
C 426.67 635.00 448.33 635.00 470.00 635.00
C 470.20 627.11 473.05 619.92 473.00 612.00
C 466.93 618.11 465.00 628.28 454.00 631.00 Z"/>
</g>
<g fill="None" fill-opacity="0.0" stroke="#EBEEF0" stroke-opacity="1.00" stroke-width="0.3"><path d="
M 722.00 631.00 
C 718.99 631.67 716.96 631.65 714.00 631.00
C 702.92 628.54 698.43 621.23 698.00 610.00
C 696.00 595.99 695.13 575.87 698.00 562.00
C 696.68 554.96 704.28 552.86 709.00 552.00
C 705.65 548.31 695.72 550.11 690.00 550.00 C 684.28 549.89 675.26 548.51 672.00 552.00
C 689.55 552.99 683.02 575.08 684.00 587.00 C 684.98 598.92 684.63 598.35 684.00 610.00 C 683.37 621.65 692.50 634.15 704.33 635.67 C 716.16 637.19 715.24 637.36 726.92 634.92 C 738.61 632.49 746.08 618.67 745.67 607.67 C 745.26 596.67 746.76 594.48 746.00 585.00 C 745.24 575.52 747.15 571.09 746.00 562.00 C 744.86 552.91 754.95 554.65 757.00 550.00
C 748.00 550.00 739.00 550.00 730.00 550.00
C 734.15 553.72 741.43 554.04 741.07 561.93 C 740.72 569.82 742.99 576.45 742.00 584.00 C 741.01 591.55 742.91 599.10 741.98 605.98 C 741.05 612.85 740.25 618.05 736.25 623.25 C 732.24 628.45 727.76 629.72 722.00 631.00 Z"/>
</g>
<g fill="None" fill-opacity="0.0" stroke="#ECF0F2" stroke-opacity="1.00" stroke-width="0.3"><path d="
M 796.00 594.00 
C 798.02 591.11 805.76 593.64 808.00 594.00
C 815.69 592.60 820.58 599.23 821.00 606.00
C 824.33 600.70 824.30 585.30 821.00 580.00
C 819.52 591.93 805.12 590.02 796.00 590.00
C 797.10 584.77 794.53 576.97 796.00 572.00 C 797.47 567.03 793.18 558.03 796.00 554.00
C 798.36 550.63 810.14 553.72 813.00 554.00
C 822.98 552.53 830.59 556.68 833.03 565.97 C 835.47 575.26 840.65 549.90 832.00 550.00 C 823.35 550.10 810.10 549.56 801.00 550.00 C 791.90 550.44 778.70 548.04 772.00 552.00
C 787.37 553.50 782.61 571.70 783.00 584.00 C 783.39 596.30 783.30 612.97 782.00 625.00 C 780.70 637.03 774.04 627.11 771.00 635.00
C 780.83 635.30 790.11 634.60 800.00 635.00 C 809.89 635.40 818.91 634.23 829.00 635.00 C 839.09 635.77 836.90 622.64 838.00 615.00
C 833.27 615.72 833.25 623.19 829.25 626.25 C 825.24 629.31 821.16 632.29 816.00 632.00 C 810.84 631.71 801.98 633.43 798.25 629.75 C 794.52 626.06 795.20 617.64 796.00 613.00 C 796.80 608.36 793.42 597.68 796.00 594.00 Z"/>
</g>
<g fill="None" fill-opacity="0.0" stroke="#202D3A" stroke-opacity="1.00" stroke-width="0.3"><path d="
M 499.00 588.00 
C 499.00 591.00 499.00 594.00 499.00 597.00
C 499.00 612.42 506.14 635.23 525.98 632.98 C 545.81 630.72 547.78 608.14 548.00 592.00 C 548.22 575.86 545.10 553.39 525.00 552.00 C 504.90 550.61 499.00 571.99 499.00 588.00 Z"/>
</g>
<g fill="None" fill-opacity="0.0" stroke="#8E979E" stroke-opacity="1.00" stroke-width="0.3"><path d="
M 210.00 590.00 
C 210.00 578.00 210.00 566.00 210.00 554.00
C 214.67 554.00 219.33 554.00 224.00 554.00
C 221.93 553.80 209.76 550.45 209.00 555.00 C 208.24 559.55 208.64 568.73 209.00 573.00 C 209.36 577.27 206.81 587.77 210.00 590.00 Z"/>
</g>
<g fill="None" fill-opacity="0.0" stroke="#80868E" stroke-opacity="1.00" stroke-width="0.3"><path d="
M 298.00 554.00 
C 300.60 554.00 303.42 553.68 306.00 554.00
C 303.05 553.27 300.90 553.61 298.00 554.00 Z"/>
</g>
<g fill="None" fill-opacity="0.0" stroke="#7C8688" stroke-opacity="1.00" stroke-width="0.3"><path d="
M 796.00 554.00 
C 801.67 554.00 807.33 554.00 813.00 554.00
C 810.14 553.72 798.36 550.63 796.00 554.00 Z"/>
</g>
<g fill="None" fill-opacity="0.0" stroke="#788189" stroke-opacity="1.00" stroke-width="0.3"><path d="
M 292.00 625.00 
C 290.94 617.89 292.17 606.88 292.00 600.00 C 291.83 593.12 291.30 581.71 292.00 576.00 C 292.70 570.29 289.04 555.60 294.00 554.00
C 287.79 555.08 291.75 569.86 291.00 576.00 C 290.25 582.14 291.15 593.98 291.00 601.00 C 290.85 608.02 290.20 618.55 292.00 625.00 Z"/>
</g>
<g fill="None" fill-opacity="0.0" stroke="#6F7982" stroke-opacity="1.00" stroke-width="0.3"><path d="
M 698.00 610.00 
C 697.41 594.43 696.59 577.51 698.00 562.00
C 695.13 575.87 696.00 595.99 698.00 610.00 Z"/>
</g>
<g fill="None" fill-opacity="0.0" stroke="#9097A1" stroke-opacity="1.00" stroke-width="0.3"><path d="
M 650.00 576.00 
C 652.08 573.95 651.00 568.03 651.00 565.00
C 651.00 565.00 650.00 564.96 650.00 565.00
C 650.00 567.48 651.20 573.92 650.00 576.00 Z"/>
</g>
<g fill="None" fill-opacity="0.0" stroke="#8E939B" stroke-opacity="1.00" stroke-width="0.3"><path d="
M 335.00 578.00 
C 335.46 575.43 335.47 573.63 335.00 571.00
C 335.14 573.27 335.14 575.73 335.00 578.00 Z"/>
</g>
<g fill="None" fill-opacity="0.0" stroke="#848E93" stroke-opacity="1.00" stroke-width="0.3"><path d="
M 236.00 600.00 
C 236.17 597.18 236.28 591.56 236.00 589.00 C 235.72 586.44 237.36 579.97 235.00 579.00
C 234.09 585.90 235.77 593.84 236.00 600.00 Z"/>
</g>
<g fill="None" fill-opacity="0.0" stroke="#848F94" stroke-opacity="1.00" stroke-width="0.3"><path d="
M 563.00 598.00 
C 563.64 594.07 563.48 589.95 563.00 586.00
C 563.08 589.96 563.21 594.04 563.00 598.00 Z"/>
</g>
<g fill="None" fill-opacity="0.0" stroke="#88919A" stroke-opacity="1.00" stroke-width="0.3"><path d="
M 484.00 600.00 
C 483.84 595.73 483.77 591.27 484.00 587.00
C 483.31 591.24 483.39 595.71 484.00 600.00 Z"/>
</g>
<g fill="None" fill-opacity="0.0" stroke="#84898F" stroke-opacity="1.00" stroke-width="0.3"><path d="
M 499.00 597.00 
C 499.00 594.00 499.00 591.00 499.00 588.00
C 498.73 590.76 498.73 594.18 499.00 597.00 Z"/>
</g>
<g fill="None" fill-opacity="0.0" stroke="#747E87" stroke-opacity="1.00" stroke-width="0.3"><path d="
M 580.00 598.00 
C 579.89 595.02 579.94 591.98 580.00 589.00
C 579.64 591.95 579.57 594.96 580.00 598.00 Z"/>
</g>
<g fill="None" fill-opacity="0.0" stroke="#787F87" stroke-opacity="1.00" stroke-width="0.3"><path d="
M 210.00 595.00 
C 211.41 592.98 217.55 593.91 220.00 594.00
C 216.61 593.52 210.90 591.39 210.00 595.00 Z"/>
</g>
<g fill="None" fill-opacity="0.0" stroke="#798389" stroke-opacity="1.00" stroke-width="0.3"><path d="
M 796.00 594.00 
C 799.99 594.16 804.01 593.78 808.00 594.00
C 805.76 593.64 798.02 591.11 796.00 594.00 Z"/>
</g>
<g fill="None" fill-opacity="0.0" stroke="#747B84" stroke-opacity="1.00" stroke-width="0.3"><path d="
M 454.00 631.00 
C 448.87 631.64 441.07 631.98 436.00 631.00
C 441.15 632.72 448.78 632.29 454.00 631.00 Z"/>
</g>
<g fill="None" fill-opacity="0.0" stroke="#8D9499" stroke-opacity="1.00" stroke-width="0.3"><path d="
M 722.00 631.00 
C 719.52 631.26 716.48 631.25 714.00 631.00
C 716.96 631.65 718.99 631.67 722.00 631.00 Z"/>
</g>
<g fill="None" fill-opacity="0.0" stroke="#7C8488" stroke-opacity="1.00" stroke-width="0.3"><path d="
M 638.00 635.00 
C 640.15 634.94 642.48 634.21 644.00 634.00
C 641.94 634.10 639.44 634.83 638.00 635.00 Z"/>
</g>
<g fill="None" fill-opacity="0.0" stroke="#E9EDEF" stroke-opacity="1.00" stroke-width="0.3"><path d="
M 324.00 694.00 
C 326.63 690.25 337.09 694.74 341.00 693.00
C 341.00 692.00 341.00 691.00 341.00 690.00
C 336.33 687.68 329.50 689.65 324.00 689.00
C 324.00 685.00 324.00 681.00 324.00 677.00
C 330.33 677.00 336.67 677.00 343.00 677.00
C 342.07 666.93 326.26 674.21 319.00 672.00
C 319.00 685.00 319.00 698.00 319.00 711.00
C 326.51 708.91 342.12 715.53 344.00 707.00
C 337.33 707.00 330.67 707.00 324.00 707.00
C 325.53 703.74 321.96 696.91 324.00 694.00 Z"/>
</g>
<g fill="None" fill-opacity="0.0" stroke="#8A9199" stroke-opacity="1.00" stroke-width="0.3"><path d="
M 364.00 711.00 
C 364.00 711.05 365.00 711.00 365.00 711.00
C 366.14 698.44 364.15 685.59 365.00 673.00
C 367.00 673.00 369.00 673.00 371.00 673.00
C 369.62 670.86 366.19 672.52 364.00 672.00
C 364.88 684.92 362.82 698.11 364.00 711.00 Z"/>
</g>
<g fill="None" fill-opacity="0.0" stroke="#E3E9ED" stroke-opacity="1.00" stroke-width="0.3"><path d="
M 371.00 673.00 
C 369.00 673.00 367.00 673.00 365.00 673.00
C 364.15 685.59 366.14 698.44 365.00 711.00
C 366.27 711.27 367.71 710.79 369.00 711.00
C 369.00 701.33 369.00 691.67 369.00 682.00
C 370.01 682.55 370.44 683.98 371.00 685.00
C 372.52 693.60 376.61 695.34 378.68 704.32 C 380.75 713.30 387.32 710.09 389.02 702.03 C 390.73 693.96 394.63 690.79 396.00 683.00
C 398.35 687.07 396.29 694.20 397.00 699.00 C 397.71 703.80 394.27 712.80 402.00 711.00
C 402.00 698.00 402.00 685.00 402.00 672.00
C 393.09 669.84 393.70 680.38 390.77 685.77 C 387.85 691.16 386.80 698.18 383.00 703.00
C 380.09 698.81 379.88 692.05 376.93 688.07 C 373.97 684.10 374.76 676.09 371.00 673.00 Z"/>
</g>
<g fill="None" fill-opacity="0.0" stroke="#E5E9EC" stroke-opacity="1.00" stroke-width="0.3"><path d="
M 431.00 696.00 
C 440.90 697.83 454.88 693.79 452.32 681.68 C 449.77 669.57 435.73 671.91 426.00 672.00
C 426.59 678.63 425.21 687.61 426.00 694.00 C 426.79 700.39 422.47 711.75 431.00 711.00
C 431.00 706.00 431.00 701.00 431.00 696.00
M 440.00 691.00 
C 438.01 691.49 432.80 693.57 431.00 691.00
C 428.81 687.87 432.65 680.52 431.00 677.00
C 442.65 670.78 454.95 688.35 440.00 691.00 Z"/>
</g>
<g fill="None" fill-opacity="0.0" stroke="#E1E6E9" stroke-opacity="1.00" stroke-width="0.3"><path d="
M 472.00 688.00 
C 471.83 690.56 471.77 693.45 472.00 696.00
C 476.82 719.29 508.72 715.62 509.99 692.01 C 511.27 668.39 473.65 663.81 472.00 688.00
M 494.00 676.00 
C 511.03 679.34 504.82 712.52 487.00 707.00 C 469.18 701.48 476.20 672.51 494.00 676.00 Z"/>
</g>
<g fill="None" fill-opacity="0.0" stroke="#70767E" stroke-opacity="1.00" stroke-width="0.3"><path d="
M 532.00 711.00 
C 532.00 698.33 532.00 685.67 532.00 673.00
C 532.00 672.50 532.00 672.00 532.00 672.00
C 529.16 674.73 531.03 688.07 531.00 692.00 C 530.97 695.93 529.03 709.12 532.00 711.00 Z"/>
</g>
<g fill="None" fill-opacity="0.0" stroke="#B1B6B9" stroke-opacity="1.00" stroke-width="0.3"><path d="
M 532.00 673.00 
C 537.60 673.51 543.42 672.31 549.00 673.00
C 544.22 671.82 537.55 671.50 532.00 672.00
C 532.00 672.00 532.00 672.50 532.00 673.00 Z"/>
</g>
<g fill="None" fill-opacity="0.0" stroke="#7D858A" stroke-opacity="1.00" stroke-width="0.3"><path d="
M 581.00 673.00 
C 582.67 673.00 584.33 673.00 586.00 673.00
C 586.00 685.67 586.00 698.33 586.00 711.00
C 584.67 711.00 583.33 711.00 582.00 711.00
C 587.46 716.46 587.00 703.54 587.00 700.00 C 587.00 696.46 585.93 685.61 587.00 682.00 C 588.07 678.39 585.14 666.91 581.00 673.00 Z"/>
</g>
<g fill="None" fill-opacity="0.0" stroke="#E3E7EB" stroke-opacity="1.00" stroke-width="0.3"><path d="
M 641.00 673.00 
C 639.33 673.00 637.67 673.00 636.00 673.00
C 635.34 681.83 637.33 691.99 635.00 700.00
C 631.70 710.43 618.47 708.98 616.00 699.00
C 615.19 695.73 615.61 690.62 615.00 687.00 C 614.39 683.38 616.93 675.90 615.00 673.00
C 614.22 671.06 611.57 672.39 610.00 672.00
C 609.67 678.69 610.45 687.53 610.00 694.00 C 609.55 700.47 611.30 706.02 616.26 709.74 C 621.22 713.47 629.12 712.43 633.92 709.92 C 638.72 707.40 642.69 700.45 641.00 695.00 C 639.31 689.55 644.15 677.64 641.00 673.00 Z"/>
</g>
<g fill="None" fill-opacity="0.0" stroke="#757C83" stroke-opacity="1.00" stroke-width="0.3"><path d="
M 635.00 700.00 
C 637.33 691.99 635.34 681.83 636.00 673.00
C 637.67 673.00 639.33 673.00 641.00 673.00
C 636.59 666.52 633.98 679.48 635.00 683.00 C 636.02 686.52 635.68 696.20 635.00 700.00 Z"/>
</g>
<g fill="None" fill-opacity="0.0" stroke="#6D757D" stroke-opacity="1.00" stroke-width="0.3"><path d="
M 666.00 711.00 
C 666.00 698.00 666.00 685.00 666.00 672.00
C 663.05 674.01 665.13 688.40 665.00 692.00 C 664.87 695.60 663.19 709.22 666.00 711.00 Z"/>
</g>
<g fill="None" fill-opacity="0.0" stroke="#E3E9ED" stroke-opacity="1.00" stroke-width="0.3"><path d="
M 666.00 711.00 
C 667.67 711.00 669.33 711.00 671.00 711.00
C 671.15 709.35 670.80 707.64 671.00 706.00
C 671.18 698.64 668.78 689.13 670.00 681.00
C 671.29 681.44 672.21 682.58 672.00 684.00
C 674.59 693.25 680.27 701.51 682.00 711.00
C 693.87 710.95 690.04 691.10 697.00 685.00
C 697.04 683.73 697.54 682.27 699.00 682.00
C 698.72 683.28 699.76 685.50 698.00 686.00
C 698.00 694.33 698.00 702.67 698.00 711.00
C 699.92 711.02 701.71 711.29 703.00 710.00
C 705.83 705.76 701.59 697.24 703.00 692.00 C 704.41 686.76 701.94 678.51 703.00 673.00
C 701.00 673.00 699.00 673.00 697.00 673.00
C 693.64 683.10 688.37 692.62 686.00 703.00
C 681.80 700.70 679.61 689.60 677.32 685.68 C 675.03 681.76 673.17 667.13 666.00 672.00
C 666.00 685.00 666.00 698.00 666.00 711.00 Z"/>
</g>
<g fill="None" fill-opacity="0.0" stroke="#798086" stroke-opacity="1.00" stroke-width="0.3"><path d="
M 697.00 673.00 
C 699.00 673.00 701.00 673.00 703.00 673.00
C 701.94 678.51 704.41 686.76 703.00 692.00 C 701.59 697.24 705.83 705.76 703.00 710.00
C 706.99 706.01 702.33 692.13 704.00 687.00 C 705.67 681.87 704.35 666.88 697.00 673.00 Z"/>
</g>
<g fill="None" fill-opacity="0.0" stroke="#E5E9ED" stroke-opacity="1.00" stroke-width="0.3"><path d="
M 532.00 711.00 
C 533.67 711.00 535.33 711.00 537.00 711.00
C 537.00 705.67 537.00 700.33 537.00 695.00
C 551.12 690.09 547.32 713.04 559.00 711.00
C 557.16 705.03 553.56 699.74 551.00 694.00
C 561.84 689.56 559.58 675.62 549.00 673.00
C 543.42 672.31 537.60 673.51 532.00 673.00
C 532.00 685.67 532.00 698.33 532.00 711.00
M 537.00 691.00 
C 537.00 686.33 537.00 681.67 537.00 677.00
C 542.63 676.46 553.03 676.01 552.97 684.03 C 552.92 692.04 542.44 691.07 537.00 691.00 Z"/>
</g>
<g fill="None" fill-opacity="0.0" stroke="#E3E9EC" stroke-opacity="1.00" stroke-width="0.3"><path d="
M 582.00 711.00 
C 583.33 711.00 584.67 711.00 586.00 711.00
C 586.00 698.33 586.00 685.67 586.00 673.00
C 584.33 673.00 582.67 673.00 581.00 673.00
C 578.65 676.45 581.56 688.87 581.00 693.00 C 580.44 697.13 579.40 708.40 582.00 711.00 Z"/>
</g>
<g fill="None" fill-opacity="0.0" stroke="#7F858C" stroke-opacity="1.00" stroke-width="0.3"><path d="
M 616.00 699.00 
C 615.27 693.08 619.10 677.10 615.00 673.00
C 616.93 675.90 614.39 683.38 615.00 687.00 C 615.61 690.62 615.19 695.73 616.00 699.00 Z"/>
</g>
<g fill="None" fill-opacity="0.0" stroke="#232F3C" stroke-opacity="1.00" stroke-width="0.3"><path d="
M 494.00 676.00 
C 476.20 672.51 469.18 701.48 487.00 707.00 C 504.82 712.52 511.03 679.34 494.00 676.00 Z"/>
</g>
<g fill="None" fill-opacity="0.0" stroke="#25303B" stroke-opacity="1.00" stroke-width="0.3"><path d="
M 431.00 691.00 
C 433.97 690.73 437.05 691.37 440.00 691.00
C 454.95 688.35 442.65 670.78 431.00 677.00
C 432.65 680.52 428.81 687.87 431.00 691.00 Z"/>
</g>
<g fill="None" fill-opacity="0.0" stroke="#26313B" stroke-opacity="1.00" stroke-width="0.3"><path d="
M 537.00 691.00 
C 542.44 691.07 552.92 692.04 552.97 684.03 C 553.03 676.01 542.63 676.46 537.00 677.00
C 537.00 681.67 537.00 686.33 537.00 691.00 Z"/>
</g>
<g fill="None" fill-opacity="0.0" stroke="#8E969F" stroke-opacity="1.00" stroke-width="0.3"><path d="
M 671.00 706.00 
C 671.73 699.94 672.54 689.29 672.00 684.00
C 672.21 682.58 671.29 681.44 670.00 681.00
C 668.78 689.13 671.18 698.64 671.00 706.00 Z"/>
</g>
<g fill="None" fill-opacity="0.0" stroke="#6A747D" stroke-opacity="1.00" stroke-width="0.3"><path d="
M 365.00 711.00 
C 365.00 711.00 364.00 711.05 364.00 711.00
C 369.29 716.45 371.54 705.03 370.00 701.00 C 368.46 696.97 371.39 688.45 371.00 685.00
C 370.44 683.98 370.01 682.55 369.00 682.00
C 369.00 691.67 369.00 701.33 369.00 711.00
C 367.71 710.79 366.27 711.27 365.00 711.00 Z"/>
</g>
<g fill="None" fill-opacity="0.0" stroke="#7F8488" stroke-opacity="1.00" stroke-width="0.3"><path d="
M 697.00 685.00 
C 697.11 684.91 697.95 685.65 698.00 686.00
C 699.76 685.50 698.72 683.28 699.00 682.00
C 697.54 682.27 697.04 683.73 697.00 685.00 Z"/>
</g>
<g fill="None" fill-opacity="0.0" stroke="#7F868E" stroke-opacity="1.00" stroke-width="0.3"><path d="
M 472.00 696.00 
C 471.77 693.45 471.83 690.56 472.00 688.00
C 471.48 690.89 471.39 693.03 472.00 696.00 Z"/>
</g>
<g fill="None" fill-opacity="0.0" stroke="#89939A" stroke-opacity="1.00" stroke-width="0.3"><path d="
M 324.00 694.00 
C 326.86 694.68 345.77 694.76 341.00 690.00
C 341.00 691.00 341.00 692.00 341.00 693.00
C 337.09 694.74 326.63 690.25 324.00 694.00 Z"/>
</g>
<g fill="None" fill-opacity="0.0" stroke="#8D939A" stroke-opacity="1.00" stroke-width="0.3"><path d="
M 440.00 691.00 
C 437.05 691.37 433.97 690.73 431.00 691.00
C 432.80 693.57 438.01 691.49 440.00 691.00 Z"/>
</g>
<g fill="None" fill-opacity="0.0" stroke="#909BA1" stroke-opacity="1.00" stroke-width="0.3"><path d="
M 187.00 697.00 
C 187.24 697.25 188.00 697.00 188.00 697.00
C 193.63 692.83 204.61 697.12 212.00 696.00 C 219.39 694.88 229.09 696.28 237.00 696.00 C 244.91 695.72 253.84 695.63 262.00 696.00 C 270.16 696.37 279.84 694.83 288.00 696.00
C 283.34 692.57 274.10 695.85 268.00 695.00 C 261.90 694.15 253.26 695.31 247.00 695.00 C 240.74 694.69 231.94 694.96 226.00 695.00 C 220.06 695.04 209.90 694.60 205.00 695.00 C 200.10 695.40 187.23 692.99 187.00 697.00 Z"/>
</g>
<g fill="None" fill-opacity="0.0" stroke="#626E75" stroke-opacity="1.00" stroke-width="0.3"><path d="
M 836.00 697.00 
C 836.00 696.97 835.00 697.00 835.00 697.00
C 826.92 697.00 817.99 697.25 810.00 697.00 C 802.01 696.75 792.68 697.67 785.00 697.00 C 777.32 696.33 766.93 698.54 760.00 697.00 C 753.07 695.46 739.59 700.75 735.00 696.00
C 734.75 695.74 735.00 695.00 735.00 695.00
C 732.39 697.54 747.25 698.89 752.00 698.00 C 756.75 697.11 767.07 698.57 773.00 698.00 C 778.93 697.43 788.83 698.64 795.00 698.00 C 801.17 697.36 810.27 699.19 816.00 698.00 C 821.73 696.81 832.17 700.99 836.00 697.00 Z"/>
</g>
<g fill="None" fill-opacity="0.0" stroke="#98A2A9" stroke-opacity="1.00" stroke-width="0.3"><path d="
M 735.00 696.00 
C 743.13 696.74 751.89 695.45 760.00 696.00 C 768.11 696.55 777.07 695.28 785.00 696.00 C 792.93 696.72 802.51 694.63 810.00 696.00 C 817.49 697.37 829.22 692.71 835.00 697.00
C 835.00 697.00 836.00 696.97 836.00 697.00
C 835.76 692.84 821.82 695.55 817.00 695.00 C 812.18 694.45 801.88 695.22 796.00 695.00 C 790.12 694.78 782.39 694.99 776.00 695.00 C 769.61 695.01 761.56 694.79 755.00 695.00 C 748.44 695.21 741.55 694.40 735.00 695.00
C 735.00 695.00 734.75 695.74 735.00 696.00 Z"/>
</g>
<g fill="None" fill-opacity="0.0" stroke="#DDE8EF" stroke-opacity="1.00" stroke-width="0.3"><path d="
M 188.00 697.00 
C 198.95 696.99 210.07 697.56 221.00 697.00 C 231.93 696.44 244.24 698.44 255.00 697.00 C 265.76 695.56 278.80 700.27 289.00 697.00
C 289.10 696.81 288.30 696.22 288.00 696.00
C 279.84 694.83 270.16 696.37 262.00 696.00 C 253.84 695.63 244.91 695.72 237.00 696.00 C 229.09 696.28 219.39 694.88 212.00 696.00 C 204.61 697.12 193.63 692.83 188.00 697.00 Z"/>
</g>
<g fill="None" fill-opacity="0.0" stroke="#DDE7EE" stroke-opacity="1.00" stroke-width="0.3"><path d="
M 835.00 697.00 
C 829.22 692.71 817.49 697.37 810.00 696.00 C 802.51 694.63 792.93 696.72 785.00 696.00 C 777.07 695.28 768.11 696.55 760.00 696.00 C 751.89 695.45 743.13 696.74 735.00 696.00
C 739.59 700.75 753.07 695.46 760.00 697.00 C 766.93 698.54 777.32 696.33 785.00 697.00 C 792.68 697.67 802.01 696.75 810.00 697.00 C 817.99 697.25 826.92 697.00 835.00 697.00 Z"/>
</g>
<g fill="None" fill-opacity="0.0" stroke="#647077" stroke-opacity="1.00" stroke-width="0.3"><path d="
M 289.00 697.00 
C 278.80 700.27 265.76 695.56 255.00 697.00 C 244.24 698.44 231.93 696.44 221.00 697.00 C 210.07 697.56 198.95 696.99 188.00 697.00
C 188.00 697.00 187.24 697.25 187.00 697.00
C 190.73 700.88 201.30 696.99 207.00 698.00 C 212.70 699.01 221.88 697.71 228.00 698.00 C 234.12 698.29 243.05 698.24 249.00 698.00 C 254.95 697.76 264.93 698.93 270.00 698.00 C 275.07 697.07 286.84 700.87 289.00 697.00 Z"/>
</g>
<g fill="#1F2D3A" fill-opacity="1.00" stroke="None">
<path d="
M 0.00 1024.00 
L 1024.00 1024.00
L 1024.00 0.00
L 0.00 0.00
L 0.00 1024.00
M 598.00 330.00 
C 598.00 357.85 575.29 379.43 562.25 402.25 C 549.21 425.06 532.62 447.26 523.00 472.00
C 529.63 462.23 537.16 452.88 543.75 442.75 C 550.34 432.62 557.26 423.55 564.75 413.75 C 572.25 403.96 578.48 394.07 585.77 383.77 C 593.06 373.47 599.11 365.25 605.92 353.92 C 612.74 342.60 630.85 354.74 641.00 358.00
C 607.70 391.82 567.66 421.11 539.00 459.00
C 571.26 432.38 604.68 406.23 639.00 383.00
C 651.04 391.64 665.46 399.21 675.00 410.00
C 629.16 421.81 581.20 434.51 543.00 464.00
C 563.31 456.20 584.32 446.59 605.07 440.07 C 625.83 433.56 652.77 424.32 670.23 440.77 C 687.69 457.22 696.57 471.20 705.00 492.00
C 674.69 477.60 641.94 469.96 608.00 468.00
C 605.23 468.00 602.04 467.20 600.00 467.00
C 582.42 467.00 567.65 468.86 550.98 471.98 C 534.30 475.09 534.07 491.15 525.00 501.00
C 523.38 496.61 520.73 490.64 515.00 491.00
C 512.95 490.76 510.04 490.66 508.00 491.00
C 500.57 493.35 496.66 504.88 493.08 493.92 C 489.49 482.97 489.28 479.00 480.31 474.70 C 471.33 470.39 464.48 469.28 454.93 468.07 C 445.38 466.87 432.64 466.41 423.00 467.00 C 413.36 467.59 403.22 468.71 394.00 470.00 C 384.78 471.28 376.12 473.57 367.32 475.32 C 358.52 477.07 350.68 479.75 342.32 482.32 C 333.96 484.89 327.11 488.97 319.00 492.00
C 328.99 471.01 336.72 457.18 354.70 440.70 C 372.68 424.22 398.88 434.15 420.07 440.93 C 441.27 447.70 463.36 456.39 484.00 465.00
C 444.82 435.70 396.88 421.11 350.00 410.00
C 356.62 398.73 367.47 398.47 376.70 388.70 C 385.93 378.92 396.17 390.06 405.25 396.75 C 414.32 403.45 424.21 409.82 433.08 416.92 C 441.95 424.02 450.98 431.03 459.75 438.25 C 468.51 445.48 477.25 452.73 486.00 460.00
C 458.34 421.00 416.97 392.58 384.00 358.00
C 394.60 354.47 404.71 349.19 416.00 348.00
C 442.39 390.43 473.33 431.10 502.00 472.00
C 490.84 445.19 475.21 423.02 459.75 398.25 C 444.28 373.48 421.42 347.29 426.00 315.00
C 440.20 315.84 457.26 319.01 470.07 323.93 C 482.89 328.84 497.41 331.53 505.00 342.00
C 506.59 347.24 506.00 354.05 506.00 360.00
C 506.00 373.33 506.00 386.67 506.00 400.00
C 506.00 408.64 505.51 417.37 506.00 426.00 C 506.49 434.63 504.70 443.40 506.00 452.00 C 507.30 460.60 502.69 469.88 506.98 478.02 C 511.26 486.17 520.60 477.50 518.00 469.00 C 515.40 460.50 518.92 451.69 518.00 443.00 C 517.08 434.31 518.00 424.77 518.00 416.00
C 518.00 400.10 517.54 383.09 519.00 368.00
C 519.00 356.18 515.45 337.88 528.23 334.23 C 541.01 330.58 546.89 324.61 559.22 322.22 C 571.56 319.84 583.15 314.15 596.00 315.00
C 596.17 315.01 598.12 313.09 599.00 314.00
C 598.35 319.16 600.31 325.66 598.00 330.00
M 229.00 442.00 
C 219.70 437.41 218.76 441.98 227.69 446.31 C 236.63 450.63 215.32 460.61 217.00 449.00
C 219.89 450.84 227.36 455.02 227.00 448.00
C 211.11 448.59 222.42 428.12 229.00 442.00
M 280.00 438.00 
C 278.23 440.03 274.52 438.53 272.00 439.00
C 269.82 445.52 275.40 444.53 279.00 446.00
C 276.07 447.79 269.98 445.78 272.00 452.00
C 274.52 452.56 278.30 450.81 280.00 453.00
C 277.57 455.13 273.18 453.47 270.00 454.00
C 270.00 448.67 270.00 443.33 270.00 438.00
C 271.48 435.89 278.39 436.70 280.00 438.00
M 297.00 442.00 
C 286.82 437.46 287.91 441.42 296.25 446.75 C 304.58 452.09 281.70 458.97 286.00 448.00
C 292.02 454.99 298.69 449.46 288.32 445.68 C 277.95 441.89 297.95 430.01 297.00 442.00
M 730.00 437.00 
C 729.35 442.17 731.31 448.66 729.00 453.00
C 727.94 449.80 727.10 448.36 728.00 444.00 C 728.90 439.64 724.76 441.26 724.00 439.00
C 726.34 439.20 727.38 436.07 730.00 437.00
M 749.00 453.00 
C 748.29 455.16 741.07 454.14 740.00 453.00
C 738.86 451.79 739.33 451.53 740.00 450.00
C 741.06 447.57 744.14 446.91 741.00 445.00
C 734.34 442.45 744.13 433.20 747.69 438.31 C 751.25 443.41 745.85 447.68 742.00 450.00
C 743.33 452.68 749.20 448.85 749.00 453.00
M 779.00 441.00 
C 777.35 445.06 776.69 451.35 773.00 453.00
C 773.59 448.48 774.78 444.05 777.00 440.00
C 774.38 439.58 770.17 441.30 769.00 438.00
C 769.80 435.45 773.32 437.41 777.00 437.00 C 780.68 436.59 779.96 438.63 779.00 441.00
M 803.00 452.00 
C 805.01 454.10 795.28 455.15 794.00 453.00
C 791.58 448.94 799.92 447.72 800.75 443.75 C 801.59 439.78 796.27 437.29 794.00 443.00
C 791.87 439.24 799.03 434.24 802.23 438.77 C 805.43 443.30 799.63 447.76 797.00 451.00
C 799.23 450.48 800.73 452.54 803.00 452.00
M 243.00 438.00 
C 243.23 443.44 249.54 449.04 247.00 454.00
C 245.07 446.07 236.92 450.34 234.00 454.00
C 236.19 448.76 235.96 438.11 243.00 438.00
M 256.00 452.00 
C 258.84 452.59 262.98 450.78 265.00 453.00
C 262.24 455.16 257.51 453.45 254.00 454.00
C 254.65 448.84 252.69 442.34 255.00 438.00
C 257.22 441.75 255.41 447.49 256.00 452.00
M 761.00 453.00 
C 758.54 448.86 761.29 442.53 759.00 438.00
C 764.49 438.36 761.93 449.49 761.00 453.00
M 291.00 485.00 
C 257.40 486.66 220.53 486.67 187.00 485.00
C 220.60 483.33 257.47 483.33 291.00 485.00
M 837.00 485.00 
C 803.73 486.67 767.20 486.67 734.00 485.00
C 767.27 483.33 803.80 483.33 837.00 485.00
M 563.00 586.00 
C 563.48 589.95 563.64 594.07 563.00 598.00
C 561.87 618.75 546.14 634.54 525.00 636.00 C 503.86 637.46 484.84 621.92 484.00 600.00
C 483.39 595.71 483.31 591.24 484.00 587.00
C 485.18 565.32 501.14 549.53 523.00 549.00 C 544.86 548.47 562.55 563.56 563.00 586.00
M 647.00 551.00 
C 653.44 548.21 651.00 559.15 651.00 565.00
C 651.00 568.03 652.08 573.95 650.00 576.00
C 648.47 578.65 646.50 567.06 644.08 563.92 C 641.65 560.79 639.36 554.97 632.97 554.03 C 626.59 553.08 624.32 550.08 614.99 552.99 C 605.66 555.90 597.76 567.11 596.22 576.22 C 594.68 585.33 594.87 588.48 595.00 596.00 C 595.13 603.52 596.18 607.23 597.98 613.02 C 599.78 618.82 602.75 621.63 606.25 625.75 C 609.74 629.88 616.08 632.38 621.00 632.00 C 625.92 631.62 635.30 633.41 637.75 627.75 C 640.19 622.08 637.04 613.32 638.00 607.00 C 638.96 600.68 628.77 600.00 625.00 599.00
C 635.06 595.04 649.83 596.99 661.00 598.00
C 654.85 600.08 649.76 602.98 651.00 611.00 C 652.24 619.02 650.07 626.07 651.00 634.00
C 648.67 634.00 646.33 634.00 644.00 634.00
C 642.48 634.21 640.15 634.94 638.00 635.00
C 624.40 635.38 609.10 637.25 597.75 629.25 C 586.40 621.24 580.53 611.93 580.00 598.00
C 579.57 594.96 579.64 591.95 580.00 589.00
C 580.21 578.42 583.46 570.50 590.25 562.25 C 597.03 554.00 605.06 551.80 615.07 549.07 C 625.09 546.35 639.20 554.38 647.00 551.00
M 224.00 554.00 
C 219.33 554.00 214.67 554.00 210.00 554.00
C 210.00 566.00 210.00 578.00 210.00 590.00
C 213.81 592.67 222.89 588.62 227.01 589.01 C 231.12 589.39 232.85 578.12 235.00 579.00
C 237.36 579.97 235.72 586.44 236.00 589.00 C 236.28 591.56 236.17 597.18 236.00 600.00
C 235.85 602.46 237.11 606.98 233.00 606.00
C 233.80 598.63 227.52 592.52 220.00 594.00
C 217.55 593.91 211.41 592.98 210.00 595.00
C 207.95 603.25 209.05 618.64 210.00 627.00 C 210.95 635.36 229.39 631.48 236.02 631.02 C 242.66 630.57 247.50 616.94 252.00 615.00
C 252.40 621.93 249.82 628.10 250.00 635.00
C 228.00 635.00 206.00 635.00 184.00 635.00
C 188.90 631.37 196.87 630.34 196.00 621.00 C 195.12 611.66 196.16 603.00 196.00 594.00 C 195.84 585.00 195.48 576.74 196.00 568.00 C 196.52 559.26 194.42 552.13 185.00 552.00
C 191.44 547.64 203.01 550.98 212.00 550.00 C 220.99 549.02 231.97 551.14 241.00 550.00 C 250.03 548.86 250.11 566.04 246.00 569.00
C 245.55 557.44 234.69 552.33 224.00 554.00
M 335.00 571.00 
C 335.47 573.63 335.46 575.43 335.00 578.00
C 333.84 596.30 311.96 603.94 296.00 602.00
C 299.23 596.60 311.18 599.01 316.25 592.25 C 321.32 585.48 322.48 576.86 321.00 569.00 C 319.52 561.13 313.69 555.26 306.00 554.00
C 303.42 553.68 300.60 554.00 298.00 554.00
C 296.74 554.00 295.24 553.78 294.00 554.00
C 289.04 555.60 292.70 570.29 292.00 576.00 C 291.30 581.71 291.83 593.12 292.00 600.00 C 292.17 606.88 290.94 617.89 292.00 625.00
C 293.79 631.41 298.07 631.61 304.00 633.00
C 294.58 637.62 278.84 633.70 267.00 635.00
C 267.97 626.47 278.12 637.43 277.93 624.93 C 277.73 612.42 278.41 595.36 278.00 583.00 C 277.59 570.64 282.16 553.56 267.00 552.00
C 273.43 547.78 286.15 550.79 295.00 550.00 C 303.85 549.21 313.83 550.59 321.69 553.31 C 329.56 556.02 334.72 562.79 335.00 571.00
M 391.00 551.00 
C 385.50 554.83 376.70 553.10 378.07 564.07 C 379.45 575.04 375.76 578.32 378.00 591.00 C 380.24 603.68 370.47 633.21 391.00 632.00
C 389.02 637.77 379.20 634.24 373.00 635.00 C 366.80 635.76 358.40 634.43 352.00 635.00
C 357.08 631.40 365.50 630.40 364.93 620.93 C 364.36 611.45 365.23 603.08 365.00 594.00 C 364.77 584.92 364.94 575.76 365.00 567.00 C 365.06 558.24 361.67 552.50 353.00 552.00
C 356.54 548.25 364.90 550.24 371.00 550.00 C 377.10 549.76 385.20 549.39 391.00 551.00
M 436.00 631.00 
C 441.07 631.98 448.87 631.64 454.00 631.00
C 465.00 628.28 466.93 618.11 473.00 612.00
C 473.05 619.92 470.20 627.11 470.00 635.00
C 448.33 635.00 426.67 635.00 405.00 635.00
C 405.63 625.68 416.50 638.51 416.78 625.78 C 417.05 613.04 417.15 595.62 417.00 583.00 C 416.85 570.38 420.85 553.14 405.00 552.00
C 414.75 547.37 430.83 551.30 443.00 550.00
C 439.97 554.24 430.01 553.52 431.00 562.00 C 431.99 570.48 430.32 578.96 431.00 587.00 C 431.68 595.04 430.20 603.54 431.00 611.00 C 431.80 618.46 427.65 628.97 436.00 631.00
M 698.00 562.00 
C 696.59 577.51 697.41 594.43 698.00 610.00
C 698.43 621.23 702.92 628.54 714.00 631.00
C 716.48 631.25 719.52 631.26 722.00 631.00
C 727.76 629.72 732.24 628.45 736.25 623.25 C 740.25 618.05 741.05 612.85 741.98 605.98 C 742.91 599.10 741.01 591.55 742.00 584.00 C 742.99 576.45 740.72 569.82 741.07 561.93 C 741.43 554.04 734.15 553.72 730.00 550.00
C 739.00 550.00 748.00 550.00 757.00 550.00
C 754.95 554.65 744.86 552.91 746.00 562.00 C 747.15 571.09 745.24 575.52 746.00 585.00 C 746.76 594.48 745.26 596.67 745.67 607.67 C 746.08 618.67 738.61 632.49 726.92 634.92 C 715.24 637.36 716.16 637.19 704.33 635.67 C 692.50 634.15 683.37 621.65 684.00 610.00 C 684.63 598.35 684.98 598.92 684.00 587.00 C 683.02 575.08 689.55 552.99 672.00 552.00
C 675.26 548.51 684.28 549.89 690.00 550.00 C 695.72 550.11 705.65 548.31 709.00 552.00
C 704.28 552.86 696.68 554.96 698.00 562.00
M 813.00 554.00 
C 807.33 554.00 801.67 554.00 796.00 554.00
C 793.18 558.03 797.47 567.03 796.00 572.00 C 794.53 576.97 797.10 584.77 796.00 590.00
C 805.12 590.02 819.52 591.93 821.00 580.00
C 824.30 585.30 824.33 600.70 821.00 606.00
C 820.58 599.23 815.69 592.60 808.00 594.00
C 804.01 593.78 799.99 594.16 796.00 594.00
C 793.42 597.68 796.80 608.36 796.00 613.00 C 795.20 617.64 794.52 626.06 798.25 629.75 C 801.98 633.43 810.84 631.71 816.00 632.00 C 821.16 632.29 825.24 629.31 829.25 626.25 C 833.25 623.19 833.27 615.72 838.00 615.00
C 836.90 622.64 839.09 635.77 829.00 635.00 C 818.91 634.23 809.89 635.40 800.00 635.00 C 790.11 634.60 780.83 635.30 771.00 635.00
C 774.04 627.11 780.70 637.03 782.00 625.00 C 783.30 612.97 783.39 596.30 783.00 584.00 C 782.61 571.70 787.37 553.50 772.00 552.00
C 778.70 548.04 791.90 550.44 801.00 550.00 C 810.10 549.56 823.35 550.10 832.00 550.00 C 840.65 549.90 835.47 575.26 833.03 565.97 C 830.59 556.68 822.98 552.53 813.00 554.00
M 341.00 690.00 
C 345.77 694.76 326.86 694.68 324.00 694.00
C 321.96 696.91 325.53 703.74 324.00 707.00
C 330.67 707.00 337.33 707.00 344.00 707.00
C 342.12 715.53 326.51 708.91 319.00 711.00
C 319.00 698.00 319.00 685.00 319.00 672.00
C 326.26 674.21 342.07 666.93 343.00 677.00
C 336.67 677.00 330.33 677.00 324.00 677.00
C 324.00 681.00 324.00 685.00 324.00 689.00
C 329.50 689.65 336.33 687.68 341.00 690.00
M 371.00 673.00 
C 374.76 676.09 373.97 684.10 376.93 688.07 C 379.88 692.05 380.09 698.81 383.00 703.00
C 386.80 698.18 387.85 691.16 390.77 685.77 C 393.70 680.38 393.09 669.84 402.00 672.00
C 402.00 685.00 402.00 698.00 402.00 711.00
C 394.27 712.80 397.71 703.80 397.00 699.00 C 396.29 694.20 398.35 687.07 396.00 683.00
C 394.63 690.79 390.73 693.96 389.02 702.03 C 387.32 710.09 380.75 713.30 378.68 704.32 C 376.61 695.34 372.52 693.60 371.00 685.00
C 371.39 688.45 368.46 696.97 370.00 701.00 C 371.54 705.03 369.29 716.45 364.00 711.00
C 362.82 698.11 364.88 684.92 364.00 672.00
C 366.19 672.52 369.62 670.86 371.00 673.00
M 431.00 696.00 
C 431.00 701.00 431.00 706.00 431.00 711.00
C 422.47 711.75 426.79 700.39 426.00 694.00 C 425.21 687.61 426.59 678.63 426.00 672.00
C 435.73 671.91 449.77 669.57 452.32 681.68 C 454.88 693.79 440.90 697.83 431.00 696.00
M 472.00 696.00 
C 471.39 693.03 471.48 690.89 472.00 688.00
C 473.65 663.81 511.27 668.39 509.99 692.01 C 508.72 715.62 476.82 719.29 472.00 696.00
M 549.00 673.00 
C 559.58 675.62 561.84 689.56 551.00 694.00
C 553.56 699.74 557.16 705.03 559.00 711.00
C 547.32 713.04 551.12 690.09 537.00 695.00
C 537.00 700.33 537.00 705.67 537.00 711.00
C 535.33 711.00 533.67 711.00 532.00 711.00
C 529.03 709.12 530.97 695.93 531.00 692.00 C 531.03 688.07 529.16 674.73 532.00 672.00
C 537.55 671.50 544.22 671.82 549.00 673.00
M 582.00 711.00 
C 579.40 708.40 580.44 697.13 581.00 693.00 C 581.56 688.87 578.65 676.45 581.00 673.00
C 585.14 666.91 588.07 678.39 587.00 682.00 C 585.93 685.61 587.00 696.46 587.00 700.00 C 587.00 703.54 587.46 716.46 582.00 711.00
M 615.00 673.00 
C 619.10 677.10 615.27 693.08 616.00 699.00
C 618.47 708.98 631.70 710.43 635.00 700.00
C 635.68 696.20 636.02 686.52 635.00 683.00 C 633.98 679.48 636.59 666.52 641.00 673.00
C 644.15 677.64 639.31 689.55 641.00 695.00 C 642.69 700.45 638.72 707.40 633.92 709.92 C 629.12 712.43 621.22 713.47 616.26 709.74 C 611.30 706.02 609.55 700.47 610.00 694.00 C 610.45 687.53 609.67 678.69 610.00 672.00
C 611.57 672.39 614.22 671.06 615.00 673.00
M 697.00 673.00 
C 704.35 666.88 705.67 681.87 704.00 687.00 C 702.33 692.13 706.99 706.01 703.00 710.00
C 701.71 711.29 699.92 711.02 698.00 711.00
C 698.00 702.67 698.00 694.33 698.00 686.00
C 697.95 685.65 697.11 684.91 697.00 685.00
C 690.04 691.10 693.87 710.95 682.00 711.00
C 680.27 701.51 674.59 693.25 672.00 684.00
C 672.54 689.29 671.73 699.94 671.00 706.00
C 670.80 707.64 671.15 709.35 671.00 711.00
C 669.33 711.00 667.67 711.00 666.00 711.00
C 663.19 709.22 664.87 695.60 665.00 692.00 C 665.13 688.40 663.05 674.01 666.00 672.00
C 673.17 667.13 675.03 681.76 677.32 685.68 C 679.61 689.60 681.80 700.70 686.00 703.00
C 688.37 692.62 693.64 683.10 697.00 673.00
M 288.00 696.00 
C 288.30 696.22 289.10 696.81 289.00 697.00
C 286.84 700.87 275.07 697.07 270.00 698.00 C 264.93 698.93 254.95 697.76 249.00 698.00 C 243.05 698.24 234.12 698.29 228.00 698.00 C 221.88 697.71 212.70 699.01 207.00 698.00 C 201.30 696.99 190.73 700.88 187.00 697.00
C 187.23 692.99 200.10 695.40 205.00 695.00 C 209.90 694.60 220.06 695.04 226.00 695.00 C 231.94 694.96 240.74 694.69 247.00 695.00 C 253.26 695.31 261.90 694.15 268.00 695.00 C 274.10 695.85 283.34 692.57 288.00 696.00
M 836.00 697.00 
C 832.17 700.99 821.73 696.81 816.00 698.00 C 810.27 699.19 801.17 697.36 795.00 698.00 C 788.83 698.64 778.93 697.43 773.00 698.00 C 767.07 698.57 756.75 697.11 752.00 698.00 C 747.25 698.89 732.39 697.54 735.00 695.00
C 741.55 694.40 748.44 695.21 755.00 695.00 C 761.56 694.79 769.61 695.01 776.00 695.00 C 782.39 694.99 790.12 694.78 796.00 695.00 C 801.88 695.22 812.18 694.45 817.00 695.00 C 821.82 695.55 835.76 692.84 836.00 697.00 Z"/>
</g>
<g fill="#89919C" fill-opacity="1.00" stroke="None">
<path d="
M 596.00 315.00 
C 599.63 316.65 598.00 325.82 598.00 330.00
C 600.31 325.66 598.35 319.16 599.00 314.00
C 598.12 313.09 596.17 315.01 596.00 315.00 Z"/>
</g>
<g fill="#F5F7F8" fill-opacity="1.00" stroke="None">
<path d="
M 508.00 491.00 
C 510.81 490.11 512.28 490.33 515.00 491.00
C 520.73 490.64 523.38 496.61 525.00 501.00
C 534.07 491.15 534.30 475.09 550.98 471.98 C 567.65 468.86 582.42 467.00 600.00 467.00
C 602.77 467.00 605.96 467.80 608.00 468.00
C 641.94 469.96 674.69 477.60 705.00 492.00
C 696.57 471.20 687.69 457.22 670.23 440.77 C 652.77 424.32 625.83 433.56 605.07 440.07 C 584.32 446.59 563.31 456.20 543.00 464.00
C 581.20 434.51 629.16 421.81 675.00 410.00
C 665.46 399.21 651.04 391.64 639.00 383.00
C 604.68 406.23 571.26 432.38 539.00 459.00
C 567.66 421.11 607.70 391.82 641.00 358.00
C 630.85 354.74 612.74 342.60 605.92 353.92 C 599.11 365.25 593.06 373.47 585.77 383.77 C 578.48 394.07 572.25 403.96 564.75 413.75 C 557.26 423.55 550.34 432.62 543.75 442.75 C 537.16 452.88 529.63 462.23 523.00 472.00
C 532.62 447.26 549.21 425.06 562.25 402.25 C 575.29 379.43 598.00 357.85 598.00 330.00
C 598.00 325.82 599.63 316.65 596.00 315.00
C 583.15 314.15 571.56 319.84 559.22 322.22 C 546.89 324.61 541.01 330.58 528.23 334.23 C 515.45 337.88 519.00 356.18 519.00 368.00
C 519.00 383.90 519.46 400.91 518.00 416.00
C 518.00 424.77 517.08 434.31 518.00 443.00 C 518.92 451.69 515.40 460.50 518.00 469.00 C 520.60 477.50 511.26 486.17 506.98 478.02 C 502.69 469.88 507.30 460.60 506.00 452.00 C 504.70 443.40 506.49 434.63 506.00 426.00 C 505.51 417.37 506.00 408.64 506.00 400.00
C 504.78 387.44 505.00 373.28 505.00 360.00
C 505.00 354.28 505.95 347.63 505.00 342.00
C 497.41 331.53 482.89 328.84 470.07 323.93 C 457.26 319.01 440.20 315.84 426.00 315.00
C 421.42 347.29 444.28 373.48 459.75 398.25 C 475.21 423.02 490.84 445.19 502.00 472.00
C 473.33 431.10 442.39 390.43 416.00 348.00
C 404.71 349.19 394.60 354.47 384.00 358.00
C 416.97 392.58 458.34 421.00 486.00 460.00
C 477.25 452.73 468.51 445.48 459.75 438.25 C 450.98 431.03 441.95 424.02 433.08 416.92 C 424.21 409.82 414.32 403.45 405.25 396.75 C 396.17 390.06 385.93 378.92 376.70 388.70 C 367.47 398.47 356.62 398.73 350.00 410.00
C 396.88 421.11 444.82 435.70 484.00 465.00
C 463.36 456.39 441.27 447.70 420.07 440.93 C 398.88 434.15 372.68 424.22 354.70 440.70 C 336.72 457.18 328.99 471.01 319.00 492.00
C 327.11 488.97 333.96 484.89 342.32 482.32 C 350.68 479.75 358.52 477.07 367.32 475.32 C 376.12 473.57 384.78 471.28 394.00 470.00 C 403.22 468.71 413.36 467.59 423.00 467.00 C 432.64 466.41 445.38 466.87 454.93 468.07 C 464.48 469.28 471.33 470.39 480.31 474.70 C 489.28 479.00 489.49 482.97 493.08 493.92 C 496.66 504.88 500.57 493.35 508.00 491.00 Z"/>
</g>
<g fill="#6C767F" fill-opacity="1.00" stroke="None">
<path d="
M 505.00 360.00 
C 505.00 359.96 506.00 360.00 506.00 360.00
C 506.00 354.05 506.59 347.24 505.00 342.00
C 505.95 347.63 505.00 354.28 505.00 360.00 Z"/>
</g>
<g fill="#99A0AB" fill-opacity="1.00" stroke="None">
<path d="
M 506.00 400.00 
C 506.00 386.67 506.00 373.33 506.00 360.00
C 506.00 360.00 505.00 359.96 505.00 360.00
C 505.00 373.28 504.78 387.44 506.00 400.00 Z"/>
</g>
<g fill="#808691" fill-opacity="1.00" stroke="None">
<path d="
M 518.00 416.00 
C 519.46 400.91 519.00 383.90 519.00 368.00
C 517.54 383.09 518.00 400.10 518.00 416.00 Z"/>
</g>
<g fill="#A6B2BE" fill-opacity="1.00" stroke="None">
<path d="
M 229.00 442.00 
C 222.42 428.12 211.11 448.59 227.00 448.00
C 227.36 455.02 219.89 450.84 217.00 449.00
C 215.32 460.61 236.63 450.63 227.69 446.31 C 218.76 441.98 219.70 437.41 229.00 442.00 Z"/>
</g>
<g fill="#626E7A" fill-opacity="1.00" stroke="None">
<path d="
M 270.00 438.00 
C 273.33 438.00 276.67 438.00 280.00 438.00
C 278.39 436.70 271.48 435.89 270.00 438.00 Z"/>
</g>
<g fill="#ABB8C3" fill-opacity="1.00" stroke="None">
<path d="
M 297.00 442.00 
C 297.95 430.01 277.95 441.89 288.32 445.68 C 298.69 449.46 292.02 454.99 286.00 448.00
C 281.70 458.97 304.58 452.09 296.25 446.75 C 287.91 441.42 286.82 437.46 297.00 442.00 Z"/>
</g>
<g fill="#ACB8C3" fill-opacity="1.00" stroke="None">
<path d="
M 730.00 437.00 
C 727.38 436.07 726.34 439.20 724.00 439.00
C 724.76 441.26 728.90 439.64 728.00 444.00 C 727.10 448.36 727.94 449.80 729.00 453.00
C 731.31 448.66 729.35 442.17 730.00 437.00 Z"/>
</g>
<g fill="#A8B4C0" fill-opacity="1.00" stroke="None">
<path d="
M 741.00 445.00 
C 741.44 445.17 742.00 445.00 742.00 445.00
C 738.08 438.42 748.83 436.73 746.00 444.00
C 744.95 446.71 741.26 447.85 740.00 450.00
C 739.33 451.53 738.86 451.79 740.00 453.00
C 742.10 454.37 746.67 451.97 749.00 453.00
C 749.20 448.85 743.33 452.68 742.00 450.00
C 745.85 447.68 751.25 443.41 747.69 438.31 C 744.13 433.20 734.34 442.45 741.00 445.00 Z"/>
</g>
<g fill="#5A6771" fill-opacity="1.00" stroke="None">
<path d="
M 769.00 438.00 
C 772.67 438.00 776.33 438.00 780.00 438.00
C 780.53 439.28 779.03 439.86 779.00 441.00
C 779.96 438.63 780.68 436.59 777.00 437.00 C 773.32 437.41 769.80 435.45 769.00 438.00 Z"/>
</g>
<g fill="#A2AFBA" fill-opacity="1.00" stroke="None">
<path d="
M 794.00 453.00 
C 796.84 452.41 800.98 454.22 803.00 452.00
C 800.73 452.54 799.23 450.48 797.00 451.00
C 799.63 447.76 805.43 443.30 802.23 438.77 C 799.03 434.24 791.87 439.24 794.00 443.00
C 796.27 437.29 801.59 439.78 800.75 443.75 C 799.92 447.72 791.58 448.94 794.00 453.00 Z"/>
</g>
<g fill="#A3AFBB" fill-opacity="1.00" stroke="None">
<path d="
M 243.00 438.00 
C 235.96 438.11 236.19 448.76 234.00 454.00
C 236.92 450.34 245.07 446.07 247.00 454.00
C 249.54 449.04 243.23 443.44 243.00 438.00
M 242.00 441.00 
C 243.74 445.86 243.81 447.67 238.00 448.00
C 239.10 445.73 239.09 441.33 242.00 441.00 Z"/>
</g>
<g fill="#B6C1CD" fill-opacity="1.00" stroke="None">
<path d="
M 256.00 452.00 
C 255.41 447.49 257.22 441.75 255.00 438.00
C 252.69 442.34 254.65 448.84 254.00 454.00
C 257.51 453.45 262.24 455.16 265.00 453.00
C 262.98 450.78 258.84 452.59 256.00 452.00 Z"/>
</g>
<g fill="#B7C3CE" fill-opacity="1.00" stroke="None">
<path d="
M 280.00 438.00 
C 276.67 438.00 273.33 438.00 270.00 438.00
C 270.00 443.33 270.00 448.67 270.00 454.00
C 273.18 453.47 277.57 455.13 280.00 453.00
C 278.30 450.81 274.52 452.56 272.00 452.00
C 269.98 445.78 276.07 447.79 279.00 446.00
C 275.40 444.53 269.82 445.52 272.00 439.00
C 274.52 438.53 278.23 440.03 280.00 438.00 Z"/>
</g>
<g fill="#9FACB8" fill-opacity="1.00" stroke="None">
<path d="
M 761.00 453.00 
C 761.93 449.49 764.49 438.36 759.00 438.00
C 761.29 442.53 758.54 448.86 761.00 453.00 Z"/>
</g>
<g fill="#A9B5C0" fill-opacity="1.00" stroke="None">
<path d="
M 779.00 441.00 
C 779.03 439.86 780.53 439.28 780.00 438.00
C 776.33 438.00 772.67 438.00 769.00 438.00
C 770.17 441.30 774.38 439.58 777.00 440.00
C 774.78 444.05 773.59 448.48 773.00 453.00
C 776.69 451.35 777.35 445.06 779.00 441.00 Z"/>
</g>
<g fill="#28333E" fill-opacity="1.00" stroke="None">
<path d="
M 742.00 445.00 
C 743.24 445.09 745.07 444.92 746.00 444.00
C 748.83 436.73 738.08 438.42 742.00 445.00 Z"/>
</g>
<g fill="#2D3B45" fill-opacity="1.00" stroke="None">
<path d="
M 242.00 441.00 
C 239.09 441.33 239.10 445.73 238.00 448.00
C 243.81 447.67 243.74 445.86 242.00 441.00 Z"/>
</g>
<g fill="#6F7A85" fill-opacity="1.00" stroke="None">
<path d="
M 742.00 445.00 
C 742.00 445.00 741.44 445.17 741.00 445.00
C 744.14 446.91 741.06 447.57 740.00 450.00
C 741.26 447.85 744.95 446.71 746.00 444.00
C 745.07 444.92 743.24 445.09 742.00 445.00 Z"/>
</g>
<g fill="#6B7883" fill-opacity="1.00" stroke="None">
<path d="
M 794.00 453.00 
C 795.28 455.15 805.01 454.10 803.00 452.00
C 800.98 454.22 796.84 452.41 794.00 453.00 Z"/>
</g>
<g fill="#616F79" fill-opacity="1.00" stroke="None">
<path d="
M 749.00 453.00 
C 746.67 451.97 742.10 454.37 740.00 453.00
C 741.07 454.14 748.29 455.16 749.00 453.00 Z"/>
</g>
<g fill="#8D969F" fill-opacity="1.00" stroke="None">
<path d="
M 608.00 468.00 
C 605.96 467.80 602.77 467.00 600.00 467.00
C 602.04 467.20 605.23 468.00 608.00 468.00 Z"/>
</g>
<g fill="#D0D9E1" fill-opacity="1.00" stroke="None">
<path d="
M 291.00 485.00 
C 257.47 483.33 220.60 483.33 187.00 485.00
C 220.53 486.67 257.40 486.66 291.00 485.00 Z"/>
</g>
<g fill="#CDD6DE" fill-opacity="1.00" stroke="None">
<path d="
M 837.00 485.00 
C 803.80 483.33 767.27 483.33 734.00 485.00
C 767.20 486.67 803.73 486.67 837.00 485.00 Z"/>
</g>
<g fill="#888F95" fill-opacity="1.00" stroke="None">
<path d="
M 508.00 491.00 
C 510.04 490.66 512.95 490.76 515.00 491.00
C 512.28 490.33 510.81 490.11 508.00 491.00 Z"/>
</g>
<g fill="#EFF2F3" fill-opacity="1.00" stroke="None">
<path d="
M 484.00 587.00 
C 483.77 591.27 483.84 595.73 484.00 600.00
C 484.84 621.92 503.86 637.46 525.00 636.00 C 546.14 634.54 561.87 618.75 563.00 598.00
C 563.21 594.04 563.08 589.96 563.00 586.00
C 562.55 563.56 544.86 548.47 523.00 549.00 C 501.14 549.53 485.18 565.32 484.00 587.00
M 499.00 597.00 
C 498.73 594.18 498.73 590.76 499.00 588.00
C 499.00 571.99 504.90 550.61 525.00 552.00 C 545.10 553.39 548.22 575.86 548.00 592.00 C 547.78 608.14 545.81 630.72 525.98 632.98 C 506.14 635.23 499.00 612.42 499.00 597.00 Z"/>
</g>
<g fill="#ECEFF1" fill-opacity="1.00" stroke="None">
<path d="
M 580.00 589.00 
C 579.94 591.98 579.89 595.02 580.00 598.00
C 580.53 611.93 586.40 621.24 597.75 629.25 C 609.10 637.25 624.40 635.38 638.00 635.00
C 639.44 634.83 641.94 634.10 644.00 634.00
C 646.33 634.00 648.67 634.00 651.00 634.00
C 650.07 626.07 652.24 619.02 651.00 611.00 C 649.76 602.98 654.85 600.08 661.00 598.00
C 649.83 596.99 635.06 595.04 625.00 599.00
C 628.77 600.00 638.96 600.68 638.00 607.00 C 637.04 613.32 640.19 622.08 637.75 627.75 C 635.30 633.41 625.92 631.62 621.00 632.00 C 616.08 632.38 609.74 629.88 606.25 625.75 C 602.75 621.63 599.78 618.82 597.98 613.02 C 596.18 607.23 595.13 603.52 595.00 596.00 C 594.87 588.48 594.68 585.33 596.22 576.22 C 597.76 567.11 605.66 555.90 614.99 552.99 C 624.32 550.08 626.59 553.08 632.97 554.03 C 639.36 554.97 641.65 560.79 644.08 563.92 C 646.50 567.06 648.47 578.65 650.00 576.00
C 651.20 573.92 650.00 567.48 650.00 565.00
C 650.00 560.00 650.00 555.00 650.00 550.00
C 648.72 549.47 648.14 550.97 647.00 551.00
C 639.20 554.38 625.09 546.35 615.07 549.07 C 605.06 551.80 597.03 554.00 590.25 562.25 C 583.46 570.50 580.21 578.42 580.00 589.00 Z"/>
</g>
<g fill="#6B747B" fill-opacity="1.00" stroke="None">
<path d="
M 647.00 551.00 
C 648.14 550.97 648.72 549.47 650.00 550.00
C 650.00 555.00 650.00 560.00 650.00 565.00
C 650.00 564.96 651.00 565.00 651.00 565.00
C 651.00 559.15 653.44 548.21 647.00 551.00 Z"/>
</g>
<g fill="#E9EDEF" fill-opacity="1.00" stroke="None">
<path d="
M 210.00 595.00 
C 210.90 591.39 216.61 593.52 220.00 594.00
C 227.52 592.52 233.80 598.63 233.00 606.00
C 237.11 606.98 235.85 602.46 236.00 600.00
C 235.77 593.84 234.09 585.90 235.00 579.00
C 232.85 578.12 231.12 589.39 227.01 589.01 C 222.89 588.62 213.81 592.67 210.00 590.00
C 206.81 587.77 209.36 577.27 209.00 573.00 C 208.64 568.73 208.24 559.55 209.00 555.00 C 209.76 550.45 221.93 553.80 224.00 554.00
C 234.69 552.33 245.55 557.44 246.00 569.00
C 250.11 566.04 250.03 548.86 241.00 550.00 C 231.97 551.14 220.99 549.02 212.00 550.00 C 203.01 550.98 191.44 547.64 185.00 552.00
C 194.42 552.13 196.52 559.26 196.00 568.00 C 195.48 576.74 195.84 585.00 196.00 594.00 C 196.16 603.00 195.12 611.66 196.00 621.00 C 196.87 630.34 188.90 631.37 184.00 635.00
C 206.00 635.00 228.00 635.00 250.00 635.00
C 249.82 628.10 252.40 621.93 252.00 615.00
C 247.50 616.94 242.66 630.57 236.02 631.02 C 229.39 631.48 210.95 635.36 210.00 627.00 C 209.05 618.64 207.95 603.25 210.00 595.00 Z"/>
</g>
<g fill="#F0F2F4" fill-opacity="1.00" stroke="None">
<path d="
M 292.00 625.00 
C 290.20 618.55 290.85 608.02 291.00 601.00 C 291.15 593.98 290.25 582.14 291.00 576.00 C 291.75 569.86 287.79 555.08 294.00 554.00
C 295.24 553.78 296.74 554.00 298.00 554.00
C 300.90 553.61 303.05 553.27 306.00 554.00
C 313.69 555.26 319.52 561.13 321.00 569.00 C 322.48 576.86 321.32 585.48 316.25 592.25 C 311.18 599.01 299.23 596.60 296.00 602.00
C 311.96 603.94 333.84 596.30 335.00 578.00
C 335.14 575.73 335.14 573.27 335.00 571.00
C 334.72 562.79 329.56 556.02 321.69 553.31 C 313.83 550.59 303.85 549.21 295.00 550.00 C 286.15 550.79 273.43 547.78 267.00 552.00
C 282.16 553.56 277.59 570.64 278.00 583.00 C 278.41 595.36 277.73 612.42 277.93 624.93 C 278.12 637.43 267.97 626.47 267.00 635.00
C 278.84 633.70 294.58 637.62 304.00 633.00
C 298.07 631.61 293.79 631.41 292.00 625.00 Z"/>
</g>
<g fill="#F1F3F5" fill-opacity="1.00" stroke="None">
<path d="
M 391.00 551.00 
C 385.20 549.39 377.10 549.76 371.00 550.00 C 364.90 550.24 356.54 548.25 353.00 552.00
C 361.67 552.50 365.06 558.24 365.00 567.00 C 364.94 575.76 364.77 584.92 365.00 594.00 C 365.23 603.08 364.36 611.45 364.93 620.93 C 365.50 630.40 357.08 631.40 352.00 635.00
C 358.40 634.43 366.80 635.76 373.00 635.00 C 379.20 634.24 389.02 637.77 391.00 632.00
C 370.47 633.21 380.24 603.68 378.00 591.00 C 375.76 578.32 379.45 575.04 378.07 564.07 C 376.70 553.10 385.50 554.83 391.00 551.00 Z"/>
</g>
<g fill="#EDF0F1" fill-opacity="1.00" stroke="None">
<path d="
M 454.00 631.00 
C 448.78 632.29 441.15 632.72 436.00 631.00
C 427.65 628.97 431.80 618.46 431.00 611.00 C 430.20 603.54 431.68 595.04 431.00 587.00 C 430.32 578.96 431.99 570.48 431.00 562.00 C 430.01 553.52 439.97 554.24 443.00 550.00
C 430.83 551.30 414.75 547.37 405.00 552.00
C 420.85 553.14 416.85 570.38 417.00 583.00 C 417.15 595.62 417.05 613.04 416.78 625.78 C 416.50 638.51 405.63 625.68 405.00 635.00
C 426.67 635.00 448.33 635.00 470.00 635.00
C 470.20 627.11 473.05 619.92 473.00 612.00
C 466.93 618.11 465.00 628.28 454.00 631.00 Z"/>
</g>
<g fill="#EBEEF0" fill-opacity="1.00" stroke="None">
<path d="
M 722.00 631.00 
C 718.99 631.67 716.96 631.65 714.00 631.00
C 702.92 628.54 698.43 621.23 698.00 610.00
C 696.00 595.99 695.13 575.87 698.00 562.00
C 696.68 554.96 704.28 552.86 709.00 552.00
C 705.65 548.31 695.72 550.11 690.00 550.00 C 684.28 549.89 675.26 548.51 672.00 552.00
C 689.55 552.99 683.02 575.08 684.00 587.00 C 684.98 598.92 684.63 598.35 684.00 610.00 C 683.37 621.65 692.50 634.15 704.33 635.67 C 716.16 637.19 715.24 637.36 726.92 634.92 C 738.61 632.49 746.08 618.67 745.67 607.67 C 745.26 596.67 746.76 594.48 746.00 585.00 C 745.24 575.52 747.15 571.09 746.00 562.00 C 744.86 552.91 754.95 554.65 757.00 550.00
C 748.00 550.00 739.00 550.00 730.00 550.00
C 734.15 553.72 741.43 554.04 741.07 561.93 C 740.72 569.82 742.99 576.45 742.00 584.00 C 741.01 591.55 742.91 599.10 741.98 605.98 C 741.05 612.85 740.25 618.05 736.25 623.25 C 732.24 628.45 727.76 629.72 722.00 631.00 Z"/>
</g>
<g fill="#ECF0F2" fill-opacity="1.00" stroke="None">
<path d="
M 796.00 594.00 
C 798.02 591.11 805.76 593.64 808.00 594.00
C 815.69 592.60 820.58 599.23 821.00 606.00
C 824.33 600.70 824.30 585.30 821.00 580.00
C 819.52 591.93 805.12 590.02 796.00 590.00
C 797.10 584.77 794.53 576.97 796.00 572.00 C 797.47 567.03 793.18 558.03 796.00 554.00
C 798.36 550.63 810.14 553.72 813.00 554.00
C 822.98 552.53 830.59 556.68 833.03 565.97 C 835.47 575.26 840.65 549.90 832.00 550.00 C 823.35 550.10 810.10 549.56 801.00 550.00 C 791.90 550.44 778.70 548.04 772.00 552.00
C 787.37 553.50 782.61 571.70 783.00 584.00 C 783.39 596.30 783.30 612.97 782.00 625.00 C 780.70 637.03 774.04 627.11 771.00 635.00
C 780.83 635.30 790.11 634.60 800.00 635.00 C 809.89 635.40 818.91 634.23 829.00 635.00 C 839.09 635.77 836.90 622.64 838.00 615.00
C 833.27 615.72 833.25 623.19 829.25 626.25 C 825.24 629.31 821.16 632.29 816.00 632.00 C 810.84 631.71 801.98 633.43 798.25 629.75 C 794.52 626.06 795.20 617.64 796.00 613.00 C 796.80 608.36 793.42 597.68 796.00 594.00 Z"/>
</g>
<g fill="#202D3A" fill-opacity="1.00" stroke="None">
<path d="
M 499.00 588.00 
C 499.00 591.00 499.00 594.00 499.00 597.00
C 499.00 612.42 506.14 635.23 525.98 632.98 C 545.81 630.72 547.78 608.14 548.00 592.00 C 548.22 575.86 545.10 553.39 525.00 552.00 C 504.90 550.61 499.00 571.99 499.00 588.00 Z"/>
</g>
<g fill="#8E979E" fill-opacity="1.00" stroke="None">
<path d="
M 210.00 590.00 
C 210.00 578.00 210.00 566.00 210.00 554.00
C 214.67 554.00 219.33 554.00 224.00 554.00
C 221.93 553.80 209.76 550.45 209.00 555.00 C 208.24 559.55 208.64 568.73 209.00 573.00 C 209.36 577.27 206.81 587.77 210.00 590.00 Z"/>
</g>
<g fill="#80868E" fill-opacity="1.00" stroke="None">
<path d="
M 298.00 554.00 
C 300.60 554.00 303.42 553.68 306.00 554.00
C 303.05 553.27 300.90 553.61 298.00 554.00 Z"/>
</g>
<g fill="#7C8688" fill-opacity="1.00" stroke="None">
<path d="
M 796.00 554.00 
C 801.67 554.00 807.33 554.00 813.00 554.00
C 810.14 553.72 798.36 550.63 796.00 554.00 Z"/>
</g>
<g fill="#788189" fill-opacity="1.00" stroke="None">
<path d="
M 292.00 625.00 
C 290.94 617.89 292.17 606.88 292.00 600.00 C 291.83 593.12 291.30 581.71 292.00 576.00 C 292.70 570.29 289.04 555.60 294.00 554.00
C 287.79 555.08 291.75 569.86 291.00 576.00 C 290.25 582.14 291.15 593.98 291.00 601.00 C 290.85 608.02 290.20 618.55 292.00 625.00 Z"/>
</g>
<g fill="#6F7982" fill-opacity="1.00" stroke="None">
<path d="
M 698.00 610.00 
C 697.41 594.43 696.59 577.51 698.00 562.00
C 695.13 575.87 696.00 595.99 698.00 610.00 Z"/>
</g>
<g fill="#9097A1" fill-opacity="1.00" stroke="None">
<path d="
M 650.00 576.00 
C 652.08 573.95 651.00 568.03 651.00 565.00
C 651.00 565.00 650.00 564.96 650.00 565.00
C 650.00 567.48 651.20 573.92 650.00 576.00 Z"/>
</g>
<g fill="#8E939B" fill-opacity="1.00" stroke="None">
<path d="
M 335.00 578.00 
C 335.46 575.43 335.47 573.63 335.00 571.00
C 335.14 573.27 335.14 575.73 335.00 578.00 Z"/>
</g>
<g fill="#848E93" fill-opacity="1.00" stroke="None">
<path d="
M 236.00 600.00 
C 236.17 597.18 236.28 591.56 236.00 589.00 C 235.72 586.44 237.36 579.97 235.00 579.00
C 234.09 585.90 235.77 593.84 236.00 600.00 Z"/>
</g>
<g fill="#848F94" fill-opacity="1.00" stroke="None">
<path d="
M 563.00 598.00 
C 563.64 594.07 563.48 589.95 563.00 586.00
C 563.08 589.96 563.21 594.04 563.00 598.00 Z"/>
</g>
<g fill="#88919A" fill-opacity="1.00" stroke="None">
<path d="
M 484.00 600.00 
C 483.84 595.73 483.77 591.27 484.00 587.00
C 483.31 591.24 483.39 595.71 484.00 600.00 Z"/>
</g>
<g fill="#84898F" fill-opacity="1.00" stroke="None">
<path d="
M 499.00 597.00 
C 499.00 594.00 499.00 591.00 499.00 588.00
C 498.73 590.76 498.73 594.18 499.00 597.00 Z"/>
</g>
<g fill="#747E87" fill-opacity="1.00" stroke="None">
<path d="
M 580.00 598.00 
C 579.89 595.02 579.94 591.98 580.00 589.00
C 579.64 591.95 579.57 594.96 580.00 598.00 Z"/>
</g>
<g fill="#787F87" fill-opacity="1.00" stroke="None">
<path d="
M 210.00 595.00 
C 211.41 592.98 217.55 593.91 220.00 594.00
C 216.61 593.52 210.90 591.39 210.00 595.00 Z"/>
</g>
<g fill="#798389" fill-opacity="1.00" stroke="None">
<path d="
M 796.00 594.00 
C 799.99 594.16 804.01 593.78 808.00 594.00
C 805.76 593.64 798.02 591.11 796.00 594.00 Z"/>
</g>
<g fill="#747B84" fill-opacity="1.00" stroke="None">
<path d="
M 454.00 631.00 
C 448.87 631.64 441.07 631.98 436.00 631.00
C 441.15 632.72 448.78 632.29 454.00 631.00 Z"/>
</g>
<g fill="#8D9499" fill-opacity="1.00" stroke="None">
<path d="
M 722.00 631.00 
C 719.52 631.26 716.48 631.25 714.00 631.00
C 716.96 631.65 718.99 631.67 722.00 631.00 Z"/>
</g>
<g fill="#7C8488" fill-opacity="1.00" stroke="None">
<path d="
M 638.00 635.00 
C 640.15 634.94 642.48 634.21 644.00 634.00
C 641.94 634.10 639.44 634.83 638.00 635.00 Z"/>
</g>
<g fill="#E9EDEF" fill-opacity="1.00" stroke="None">
<path d="
M 324.00 694.00 
C 326.63 690.25 337.09 694.74 341.00 693.00
C 341.00 692.00 341.00 691.00 341.00 690.00
C 336.33 687.68 329.50 689.65 324.00 689.00
C 324.00 685.00 324.00 681.00 324.00 677.00
C 330.33 677.00 336.67 677.00 343.00 677.00
C 342.07 666.93 326.26 674.21 319.00 672.00
C 319.00 685.00 319.00 698.00 319.00 711.00
C 326.51 708.91 342.12 715.53 344.00 707.00
C 337.33 707.00 330.67 707.00 324.00 707.00
C 325.53 703.74 321.96 696.91 324.00 694.00 Z"/>
</g>
<g fill="#8A9199" fill-opacity="1.00" stroke="None">
<path d="
M 364.00 711.00 
C 364.00 711.05 365.00 711.00 365.00 711.00
C 366.14 698.44 364.15 685.59 365.00 673.00
C 367.00 673.00 369.00 673.00 371.00 673.00
C 369.62 670.86 366.19 672.52 364.00 672.00
C 364.88 684.92 362.82 698.11 364.00 711.00 Z"/>
</g>
<g fill="#E3E9ED" fill-opacity="1.00" stroke="None">
<path d="
M 371.00 673.00 
C 369.00 673.00 367.00 673.00 365.00 673.00
C 364.15 685.59 366.14 698.44 365.00 711.00
C 366.27 711.27 367.71 710.79 369.00 711.00
C 369.00 701.33 369.00 691.67 369.00 682.00
C 370.01 682.55 370.44 683.98 371.00 685.00
C 372.52 693.60 376.61 695.34 378.68 704.32 C 380.75 713.30 387.32 710.09 389.02 702.03 C 390.73 693.96 394.63 690.79 396.00 683.00
C 398.35 687.07 396.29 694.20 397.00 699.00 C 397.71 703.80 394.27 712.80 402.00 711.00
C 402.00 698.00 402.00 685.00 402.00 672.00
C 393.09 669.84 393.70 680.38 390.77 685.77 C 387.85 691.16 386.80 698.18 383.00 703.00
C 380.09 698.81 379.88 692.05 376.93 688.07 C 373.97 684.10 374.76 676.09 371.00 673.00 Z"/>
</g>
<g fill="#E5E9EC" fill-opacity="1.00" stroke="None">
<path d="
M 431.00 696.00 
C 440.90 697.83 454.88 693.79 452.32 681.68 C 449.77 669.57 435.73 671.91 426.00 672.00
C 426.59 678.63 425.21 687.61 426.00 694.00 C 426.79 700.39 422.47 711.75 431.00 711.00
C 431.00 706.00 431.00 701.00 431.00 696.00
M 440.00 691.00 
C 438.01 691.49 432.80 693.57 431.00 691.00
C 428.81 687.87 432.65 680.52 431.00 677.00
C 442.65 670.78 454.95 688.35 440.00 691.00 Z"/>
</g>
<g fill="#E1E6E9" fill-opacity="1.00" stroke="None">
<path d="
M 472.00 688.00 
C 471.83 690.56 471.77 693.45 472.00 696.00
C 476.82 719.29 508.72 715.62 509.99 692.01 C 511.27 668.39 473.65 663.81 472.00 688.00
M 494.00 676.00 
C 511.03 679.34 504.82 712.52 487.00 707.00 C 469.18 701.48 476.20 672.51 494.00 676.00 Z"/>
</g>
<g fill="#70767E" fill-opacity="1.00" stroke="None">
<path d="
M 532.00 711.00 
C 532.00 698.33 532.00 685.67 532.00 673.00
C 532.00 672.50 532.00 672.00 532.00 672.00
C 529.16 674.73 531.03 688.07 531.00 692.00 C 530.97 695.93 529.03 709.12 532.00 711.00 Z"/>
</g>
<g fill="#B1B6B9" fill-opacity="1.00" stroke="None">
<path d="
M 532.00 673.00 
C 537.60 673.51 543.42 672.31 549.00 673.00
C 544.22 671.82 537.55 671.50 532.00 672.00
C 532.00 672.00 532.00 672.50 532.00 673.00 Z"/>
</g>
<g fill="#7D858A" fill-opacity="1.00" stroke="None">
<path d="
M 581.00 673.00 
C 582.67 673.00 584.33 673.00 586.00 673.00
C 586.00 685.67 586.00 698.33 586.00 711.00
C 584.67 711.00 583.33 711.00 582.00 711.00
C 587.46 716.46 587.00 703.54 587.00 700.00 C 587.00 696.46 585.93 685.61 587.00 682.00 C 588.07 678.39 585.14 666.91 581.00 673.00 Z"/>
</g>
<g fill="#E3E7EB" fill-opacity="1.00" stroke="None">
<path d="
M 641.00 673.00 
C 639.33 673.00 637.67 673.00 636.00 673.00
C 635.34 681.83 637.33 691.99 635.00 700.00
C 631.70 710.43 618.47 708.98 616.00 699.00
C 615.19 695.73 615.61 690.62 615.00 687.00 C 614.39 683.38 616.93 675.90 615.00 673.00
C 614.22 671.06 611.57 672.39 610.00 672.00
C 609.67 678.69 610.45 687.53 610.00 694.00 C 609.55 700.47 611.30 706.02 616.26 709.74 C 621.22 713.47 629.12 712.43 633.92 709.92 C 638.72 707.40 642.69 700.45 641.00 695.00 C 639.31 689.55 644.15 677.64 641.00 673.00 Z"/>
</g>
<g fill="#757C83" fill-opacity="1.00" stroke="None">
<path d="
M 635.00 700.00 
C 637.33 691.99 635.34 681.83 636.00 673.00
C 637.67 673.00 639.33 673.00 641.00 673.00
C 636.59 666.52 633.98 679.48 635.00 683.00 C 636.02 686.52 635.68 696.20 635.00 700.00 Z"/>
</g>
<g fill="#6D757D" fill-opacity="1.00" stroke="None">
<path d="
M 666.00 711.00 
C 666.00 698.00 666.00 685.00 666.00 672.00
C 663.05 674.01 665.13 688.40 665.00 692.00 C 664.87 695.60 663.19 709.22 666.00 711.00 Z"/>
</g>
<g fill="#E3E9ED" fill-opacity="1.00" stroke="None">
<path d="
M 666.00 711.00 
C 667.67 711.00 669.33 711.00 671.00 711.00
C 671.15 709.35 670.80 707.64 671.00 706.00
C 671.18 698.64 668.78 689.13 670.00 681.00
C 671.29 681.44 672.21 682.58 672.00 684.00
C 674.59 693.25 680.27 701.51 682.00 711.00
C 693.87 710.95 690.04 691.10 697.00 685.00
C 697.04 683.73 697.54 682.27 699.00 682.00
C 698.72 683.28 699.76 685.50 698.00 686.00
C 698.00 694.33 698.00 702.67 698.00 711.00
C 699.92 711.02 701.71 711.29 703.00 710.00
C 705.83 705.76 701.59 697.24 703.00 692.00 C 704.41 686.76 701.94 678.51 703.00 673.00
C 701.00 673.00 699.00 673.00 697.00 673.00
C 693.64 683.10 688.37 692.62 686.00 703.00
C 681.80 700.70 679.61 689.60 677.32 685.68 C 675.03 681.76 673.17 667.13 666.00 672.00
C 666.00 685.00 666.00 698.00 666.00 711.00 Z"/>
</g>
<g fill="#798086" fill-opacity="1.00" stroke="None">
<path d="
M 697.00 673.00 
C 699.00 673.00 701.00 673.00 703.00 673.00
C 701.94 678.51 704.41 686.76 703.00 692.00 C 701.59 697.24 705.83 705.76 703.00 710.00
C 706.99 706.01 702.33 692.13 704.00 687.00 C 705.67 681.87 704.35 666.88 697.00 673.00 Z"/>
</g>
<g fill="#E5E9ED" fill-opacity="1.00" stroke="None">
<path d="
M 532.00 711.00 
C 533.67 711.00 535.33 711.00 537.00 711.00
C 537.00 705.67 537.00 700.33 537.00 695.00
C 551.12 690.09 547.32 713.04 559.00 711.00
C 557.16 705.03 553.56 699.74 551.00 694.00
C 561.84 689.56 559.58 675.62 549.00 673.00
C 543.42 672.31 537.60 673.51 532.00 673.00
C 532.00 685.67 532.00 698.33 532.00 711.00
M 537.00 691.00 
C 537.00 686.33 537.00 681.67 537.00 677.00
C 542.63 676.46 553.03 676.01 552.97 684.03 C 552.92 692.04 542.44 691.07 537.00 691.00 Z"/>
</g>
<g fill="#E3E9EC" fill-opacity="1.00" stroke="None">
<path d="
M 582.00 711.00 
C 583.33 711.00 584.67 711.00 586.00 711.00
C 586.00 698.33 586.00 685.67 586.00 673.00
C 584.33 673.00 582.67 673.00 581.00 673.00
C 578.65 676.45 581.56 688.87 581.00 693.00 C 580.44 697.13 579.40 708.40 582.00 711.00 Z"/>
</g>
<g fill="#7F858C" fill-opacity="1.00" stroke="None">
<path d="
M 616.00 699.00 
C 615.27 693.08 619.10 677.10 615.00 673.00
C 616.93 675.90 614.39 683.38 615.00 687.00 C 615.61 690.62 615.19 695.73 616.00 699.00 Z"/>
</g>
<g fill="#232F3C" fill-opacity="1.00" stroke="None">
<path d="
M 494.00 676.00 
C 476.20 672.51 469.18 701.48 487.00 707.00 C 504.82 712.52 511.03 679.34 494.00 676.00 Z"/>
</g>
<g fill="#25303B" fill-opacity="1.00" stroke="None">
<path d="
M 431.00 691.00 
C 433.97 690.73 437.05 691.37 440.00 691.00
C 454.95 688.35 442.65 670.78 431.00 677.00
C 432.65 680.52 428.81 687.87 431.00 691.00 Z"/>
</g>
<g fill="#26313B" fill-opacity="1.00" stroke="None">
<path d="
M 537.00 691.00 
C 542.44 691.07 552.92 692.04 552.97 684.03 C 553.03 676.01 542.63 676.46 537.00 677.00
C 537.00 681.67 537.00 686.33 537.00 691.00 Z"/>
</g>
<g fill="#8E969F" fill-opacity="1.00" stroke="None">
<path d="
M 671.00 706.00 
C 671.73 699.94 672.54 689.29 672.00 684.00
C 672.21 682.58 671.29 681.44 670.00 681.00
C 668.78 689.13 671.18 698.64 671.00 706.00 Z"/>
</g>
<g fill="#6A747D" fill-opacity="1.00" stroke="None">
<path d="
M 365.00 711.00 
C 365.00 711.00 364.00 711.05 364.00 711.00
C 369.29 716.45 371.54 705.03 370.00 701.00 C 368.46 696.97 371.39 688.45 371.00 685.00
C 370.44 683.98 370.01 682.55 369.00 682.00
C 369.00 691.67 369.00 701.33 369.00 711.00
C 367.71 710.79 366.27 711.27 365.00 711.00 Z"/>
</g>
<g fill="#7F8488" fill-opacity="1.00" stroke="None">
<path d="
M 697.00 685.00 
C 697.11 684.91 697.95 685.65 698.00 686.00
C 699.76 685.50 698.72 683.28 699.00 682.00
C 697.54 682.27 697.04 683.73 697.00 685.00 Z"/>
</g>
<g fill="#7F868E" fill-opacity="1.00" stroke="None">
<path d="
M 472.00 696.00 
C 471.77 693.45 471.83 690.56 472.00 688.00
C 471.48 690.89 471.39 693.03 472.00 696.00 Z"/>
</g>
<g fill="#89939A" fill-opacity="1.00" stroke="None">
<path d="
M 324.00 694.00 
C 326.86 694.68 345.77 694.76 341.00 690.00
C 341.00 691.00 341.00 692.00 341.00 693.00
C 337.09 694.74 326.63 690.25 324.00 694.00 Z"/>
</g>
<g fill="#8D939A" fill-opacity="1.00" stroke="None">
<path d="
M 440.00 691.00 
C 437.05 691.37 433.97 690.73 431.00 691.00
C 432.80 693.57 438.01 691.49 440.00 691.00 Z"/>
</g>
<g fill="#909BA1" fill-opacity="1.00" stroke="None">
<path d="
M 187.00 697.00 
C 187.24 697.25 188.00 697.00 188.00 697.00
C 193.63 692.83 204.61 697.12 212.00 696.00 C 219.39 694.88 229.09 696.28 237.00 696.00 C 244.91 695.72 253.84 695.63 262.00 696.00 C 270.16 696.37 279.84 694.83 288.00 696.00
C 283.34 692.57 274.10 695.85 268.00 695.00 C 261.90 694.15 253.26 695.31 247.00 695.00 C 240.74 694.69 231.94 694.96 226.00 695.00 C 220.06 695.04 209.90 694.60 205.00 695.00 C 200.10 695.40 187.23 692.99 187.00 697.00 Z"/>
</g>
<g fill="#626E75" fill-opacity="1.00" stroke="None">
<path d="
M 836.00 697.00 
C 836.00 696.97 835.00 697.00 835.00 697.00
C 826.92 697.00 817.99 697.25 810.00 697.00 C 802.01 696.75 792.68 697.67 785.00 697.00 C 777.32 696.33 766.93 698.54 760.00 697.00 C 753.07 695.46 739.59 700.75 735.00 696.00
C 734.75 695.74 735.00 695.00 735.00 695.00
C 732.39 697.54 747.25 698.89 752.00 698.00 C 756.75 697.11 767.07 698.57 773.00 698.00 C 778.93 697.43 788.83 698.64 795.00 698.00 C 801.17 697.36 810.27 699.19 816.00 698.00 C 821.73 696.81 832.17 700.99 836.00 697.00 Z"/>
</g>
<g fill="#98A2A9" fill-opacity="1.00" stroke="None">
<path d="
M 735.00 696.00 
C 743.13 696.74 751.89 695.45 760.00 696.00 C 768.11 696.55 777.07 695.28 785.00 696.00 C 792.93 696.72 802.51 694.63 810.00 696.00 C 817.49 697.37 829.22 692.71 835.00 697.00
C 835.00 697.00 836.00 696.97 836.00 697.00
C 835.76 692.84 821.82 695.55 817.00 695.00 C 812.18 694.45 801.88 695.22 796.00 695.00 C 790.12 694.78 782.39 694.99 776.00 695.00 C 769.61 695.01 761.56 694.79 755.00 695.00 C 748.44 695.21 741.55 694.40 735.00 695.00
C 735.00 695.00 734.75 695.74 735.00 696.00 Z"/>
</g>
<g fill="#DDE8EF" fill-opacity="1.00" stroke="None">
<path d="
M 188.00 697.00 
C 198.95 696.99 210.07 697.56 221.00 697.00 C 231.93 696.44 244.24 698.44 255.00 697.00 C 265.76 695.56 278.80 700.27 289.00 697.00
C 289.10 696.81 288.30 696.22 288.00 696.00
C 279.84 694.83 270.16 696.37 262.00 696.00 C 253.84 695.63 244.91 695.72 237.00 696.00 C 229.09 696.28 219.39 694.88 212.00 696.00 C 204.61 697.12 193.63 692.83 188.00 697.00 Z"/>
</g>
<g fill="#DDE7EE" fill-opacity="1.00" stroke="None">
<path d="
M 835.00 697.00 
C 829.22 692.71 817.49 697.37 810.00 696.00 C 802.51 694.63 792.93 696.72 785.00 696.00 C 777.07 695.28 768.11 696.55 760.00 696.00 C 751.89 695.45 743.13 696.74 735.00 696.00
C 739.59 700.75 753.07 695.46 760.00 697.00 C 766.93 698.54 777.32 696.33 785.00 697.00 C 792.68 697.67 802.01 696.75 810.00 697.00 C 817.99 697.25 826.92 697.00 835.00 697.00 Z"/>
</g>
<g fill="#647077" fill-opacity="1.00" stroke="None">
<path d="
M 289.00 697.00 
C 278.80 700.27 265.76 695.56 255.00 697.00 C 244.24 698.44 231.93 696.44 221.00 697.00 C 210.07 697.56 198.95 696.99 188.00 697.00
C 188.00 697.00 187.24 697.25 187.00 697.00
C 190.73 700.88 201.30 696.99 207.00 698.00 C 212.70 699.01 221.88 697.71 228.00 698.00 C 234.12 698.29 243.05 698.24 249.00 698.00 C 254.95 697.76 264.93 698.93 270.00 698.00 C 275.07 697.07 286.84 700.87 289.00 697.00 Z"/>
</g>
</svg>